G04 #@! TF.FileFunction,Copper,L1,Top,Signal*
%FSLAX46Y46*%
G04 Gerber Fmt 4.6, Leading zero omitted, Abs format (unit mm)*
G04 Created by KiCad (PCBNEW 0.201601071449+6428~40~ubuntu14.04.1-stable) date Tue 29 Mar 2016 01:59:55 BST*
%MOMM*%
G01*
G04 APERTURE LIST*
%ADD10C,0.100000*%
%ADD11R,0.950000X1.000000*%
%ADD12R,1.150000X1.800000*%
%ADD13R,1.000000X0.950000*%
%ADD14R,0.620000X0.620000*%
%ADD15C,1.500000*%
%ADD16C,1.900000*%
%ADD17C,1.600000*%
%ADD18R,4.200000X1.400000*%
%ADD19R,1.100000X0.600000*%
%ADD20C,0.800000*%
%ADD21C,0.300000*%
%ADD22C,0.200000*%
%ADD23C,1.000000*%
%ADD24C,0.500000*%
G04 APERTURE END LIST*
D10*
D11*
X60300000Y-52500000D03*
X58700000Y-52500000D03*
D12*
X60750000Y-79250000D03*
X57750000Y-79250000D03*
X61000000Y-69000000D03*
X58000000Y-69000000D03*
D13*
X81500000Y-78200000D03*
X81500000Y-79800000D03*
X77000000Y-78200000D03*
X77000000Y-79800000D03*
D14*
X59950000Y-89750000D03*
X59050000Y-89750000D03*
X76500000Y-89450000D03*
X76500000Y-88550000D03*
X78500000Y-89450000D03*
X78500000Y-88550000D03*
X80500000Y-89450000D03*
X80500000Y-88550000D03*
X82500000Y-89450000D03*
X82500000Y-88550000D03*
X67500000Y-89450000D03*
X67500000Y-88550000D03*
X69500000Y-89450000D03*
X69500000Y-88550000D03*
D13*
X83000000Y-65950000D03*
X83000000Y-67550000D03*
X83000000Y-71050000D03*
X83000000Y-69450000D03*
D15*
X63000000Y-62540000D03*
X63000000Y-60000000D03*
X63000000Y-57460000D03*
D16*
X51470000Y-98730000D03*
X54010000Y-98730000D03*
X54010000Y-96190000D03*
X51470000Y-96190000D03*
X51470000Y-93650000D03*
X54010000Y-93650000D03*
X54010000Y-91110000D03*
X51470000Y-91110000D03*
X51470000Y-88570000D03*
X54010000Y-88570000D03*
X51470000Y-86030000D03*
X51470000Y-83490000D03*
X51470000Y-80950000D03*
X51470000Y-78410000D03*
X51470000Y-75870000D03*
X51470000Y-73330000D03*
X51470000Y-70790000D03*
X51470000Y-68250000D03*
X51470000Y-65710000D03*
X51470000Y-63170000D03*
X51470000Y-60630000D03*
X51470000Y-58090000D03*
X51470000Y-55550000D03*
X51470000Y-53010000D03*
X54010000Y-53010000D03*
X54010000Y-55550000D03*
X54010000Y-58090000D03*
X54010000Y-60630000D03*
X54010000Y-63170000D03*
X54010000Y-65710000D03*
X54010000Y-68250000D03*
X54010000Y-70790000D03*
X54010000Y-73330000D03*
X54010000Y-75870000D03*
X54010000Y-78410000D03*
X54010000Y-80950000D03*
X54010000Y-83490000D03*
X54010000Y-86030000D03*
X51470000Y-50470000D03*
X54010000Y-50470000D03*
X87030000Y-98730000D03*
X89570000Y-98730000D03*
X87030000Y-96190000D03*
X89570000Y-96190000D03*
X89570000Y-93650000D03*
X87030000Y-93650000D03*
X87030000Y-91110000D03*
X89570000Y-91110000D03*
X89570000Y-88570000D03*
X87030000Y-88570000D03*
X87030000Y-86030000D03*
X89570000Y-86030000D03*
X89570000Y-83490000D03*
X87030000Y-83490000D03*
X87030000Y-80950000D03*
X89570000Y-80950000D03*
X89570000Y-78410000D03*
X87030000Y-78410000D03*
X87030000Y-75870000D03*
X89570000Y-75870000D03*
X89570000Y-73330000D03*
X87030000Y-73330000D03*
X87030000Y-70790000D03*
X89570000Y-70790000D03*
X87030000Y-68250000D03*
X89570000Y-68250000D03*
X87030000Y-65710000D03*
X89570000Y-65710000D03*
X87030000Y-63170000D03*
X89570000Y-63170000D03*
X87030000Y-60630000D03*
X89570000Y-60630000D03*
X87030000Y-58090000D03*
X89570000Y-58090000D03*
X87030000Y-55550000D03*
X89570000Y-55550000D03*
X87030000Y-53010000D03*
X89570000Y-53010000D03*
X87030000Y-50470000D03*
X89570000Y-50470000D03*
D17*
X58500000Y-91500000D03*
X60500000Y-91500000D03*
X74500000Y-91500000D03*
X76500000Y-91500000D03*
X78500000Y-91500000D03*
X80500000Y-91500000D03*
X82500000Y-91500000D03*
X65500000Y-91500000D03*
X67500000Y-91500000D03*
X69500000Y-91500000D03*
D18*
X59500000Y-76100000D03*
X59500000Y-72400000D03*
D13*
X80000000Y-79800000D03*
X80000000Y-78200000D03*
X78500000Y-79800000D03*
X78500000Y-78200000D03*
X75500000Y-79800000D03*
X75500000Y-78200000D03*
X74000000Y-79800000D03*
X74000000Y-78200000D03*
X69500000Y-79800000D03*
X69500000Y-78200000D03*
X66500000Y-79800000D03*
X66500000Y-78200000D03*
X84500000Y-67550000D03*
X84500000Y-65950000D03*
X84500000Y-69450000D03*
X84500000Y-71050000D03*
X63500000Y-78200000D03*
X63500000Y-79800000D03*
X68000000Y-78200000D03*
X68000000Y-79800000D03*
D19*
X67300000Y-75950000D03*
X67300000Y-75000000D03*
X67300000Y-74050000D03*
X64700000Y-74050000D03*
X64700000Y-75950000D03*
X72300000Y-75950000D03*
X72300000Y-75000000D03*
X72300000Y-74050000D03*
X69700000Y-74050000D03*
X69700000Y-75950000D03*
D13*
X65000000Y-79800000D03*
X65000000Y-78200000D03*
X71000000Y-79800000D03*
X71000000Y-78200000D03*
D19*
X80050000Y-75950000D03*
X80050000Y-75000000D03*
X80050000Y-74050000D03*
X77450000Y-74050000D03*
X77450000Y-75950000D03*
D13*
X83000000Y-79800000D03*
X83000000Y-78200000D03*
X84500000Y-79800000D03*
X84500000Y-78200000D03*
D20*
X79200000Y-55600000D03*
X77400000Y-55600000D03*
X76400000Y-56600000D03*
X75000000Y-58000000D03*
X73600000Y-59400000D03*
X72200000Y-60800000D03*
X70800000Y-62200000D03*
X70800000Y-63600000D03*
X70800000Y-65400000D03*
X70800000Y-67000000D03*
X70800000Y-69000000D03*
X70800000Y-71000000D03*
X73000000Y-71000000D03*
X73000000Y-69000000D03*
X73000000Y-67000000D03*
X73000000Y-65400000D03*
X74800000Y-63600000D03*
X76200000Y-62200000D03*
X77600000Y-60800000D03*
X79200000Y-59200000D03*
X80600000Y-57800000D03*
X82000000Y-56400000D03*
X83200000Y-56000000D03*
X83200000Y-60600000D03*
X85000000Y-60600000D03*
X85000000Y-59000000D03*
X85000000Y-56000000D03*
X79000000Y-67000000D03*
X79000000Y-69000000D03*
X78200000Y-71000000D03*
X76400000Y-77000000D03*
X76400000Y-75000000D03*
X76600000Y-73000000D03*
X76600000Y-71000000D03*
X76600000Y-69000000D03*
X76600000Y-67000000D03*
X78600000Y-65000000D03*
X80000000Y-63600000D03*
X81000000Y-63000000D03*
X83000000Y-63000000D03*
X74800000Y-77000000D03*
X74800000Y-75000000D03*
X74800000Y-73000000D03*
X74800000Y-71000000D03*
X74800000Y-69000000D03*
X74800000Y-67000000D03*
X76000000Y-65000000D03*
X77400000Y-63600000D03*
X79000000Y-62000000D03*
X80400000Y-60600000D03*
X82000000Y-59000000D03*
X83250000Y-57750000D03*
X85000000Y-63000000D03*
X85000000Y-57550011D03*
X78000000Y-82000000D03*
X78500000Y-83500000D03*
X78500000Y-85500000D03*
X76500000Y-83500000D03*
X76500000Y-85500000D03*
X74000000Y-82000000D03*
X74500000Y-83500000D03*
X74500000Y-85500000D03*
X74500000Y-87500000D03*
X74500000Y-89500000D03*
X77000000Y-81000000D03*
X81500000Y-81000000D03*
X68000000Y-81000000D03*
X63500000Y-81000000D03*
X79250000Y-73000000D03*
X80500000Y-87500000D03*
X78500000Y-87500000D03*
X76500000Y-87500000D03*
X72500000Y-73000000D03*
X67500000Y-73000000D03*
X82500000Y-87500000D03*
X69500000Y-87500000D03*
X67500000Y-87500000D03*
X57500000Y-52500000D03*
X58000000Y-67500000D03*
X56750000Y-69000000D03*
X58000000Y-70500000D03*
X57750000Y-77750000D03*
X57750000Y-80750000D03*
X56500000Y-79250000D03*
D21*
X68000000Y-76800000D02*
X68000000Y-77250000D01*
X68000000Y-77250000D02*
X68000000Y-77425000D01*
X66250008Y-76500008D02*
X67000000Y-77250000D01*
X67000000Y-77250000D02*
X68000000Y-77250000D01*
X63000000Y-57460000D02*
X66250008Y-60710008D01*
X66250008Y-60710008D02*
X66250008Y-76500008D01*
X69700000Y-75950000D02*
X68850000Y-75950000D01*
X68850000Y-75950000D02*
X68000000Y-76800000D01*
X68000000Y-77425000D02*
X68000000Y-78200000D01*
D22*
X65000000Y-79800000D02*
X65025000Y-79800000D01*
X65025000Y-79800000D02*
X65849999Y-78975001D01*
X65849999Y-78975001D02*
X67199999Y-78975001D01*
X67199999Y-78975001D02*
X67975000Y-78200000D01*
X67975000Y-78200000D02*
X68000000Y-78200000D01*
D23*
X54010000Y-50470000D02*
X59770000Y-50470000D01*
X59770000Y-50470000D02*
X60300000Y-51000000D01*
X60300000Y-51000000D02*
X60300000Y-52500000D01*
X60300000Y-52500000D02*
X60300000Y-54760000D01*
X60300000Y-54760000D02*
X63000000Y-57460000D01*
D22*
X77400000Y-55600000D02*
X79200000Y-55600000D01*
X75000000Y-58000000D02*
X76400000Y-56600000D01*
X72200000Y-60800000D02*
X73600000Y-59400000D01*
X70800000Y-63600000D02*
X70800000Y-62200000D01*
X70800000Y-67000000D02*
X70800000Y-65400000D01*
X70800000Y-71000000D02*
X70800000Y-69000000D01*
X73000000Y-69000000D02*
X73000000Y-71000000D01*
X73000000Y-65400000D02*
X73000000Y-67000000D01*
X76200000Y-62200000D02*
X74800000Y-63600000D01*
X79200000Y-59200000D02*
X77600000Y-60800000D01*
X82000000Y-56400000D02*
X80600000Y-57800000D01*
X85000000Y-56000000D02*
X83200000Y-56000000D01*
X85000000Y-60600000D02*
X83200000Y-60600000D01*
X85000000Y-57550011D02*
X85000000Y-59000000D01*
D21*
X79000000Y-69000000D02*
X79000000Y-67000000D01*
X76600000Y-71000000D02*
X78200000Y-71000000D01*
X76600000Y-73000000D02*
X76400000Y-73200000D01*
X76400000Y-73200000D02*
X76400000Y-75000000D01*
X76600000Y-69000000D02*
X76600000Y-71000000D01*
X78600000Y-65000000D02*
X76600000Y-67000000D01*
X81000000Y-63000000D02*
X80600000Y-63000000D01*
X80600000Y-63000000D02*
X80000000Y-63600000D01*
X85000000Y-63000000D02*
X83000000Y-63000000D01*
X74800000Y-73000000D02*
X74800000Y-75000000D01*
X74800000Y-69000000D02*
X74800000Y-71000000D01*
X76000000Y-65000000D02*
X74800000Y-66200000D01*
X74800000Y-66200000D02*
X74800000Y-67000000D01*
X79000000Y-62000000D02*
X77400000Y-63600000D01*
X82000000Y-59000000D02*
X80400000Y-60600000D01*
X85000000Y-57550011D02*
X83449989Y-57550011D01*
X83449989Y-57550011D02*
X83250000Y-57750000D01*
D24*
X78500000Y-83500000D02*
X78500000Y-82500000D01*
X78500000Y-82500000D02*
X78000000Y-82000000D01*
X78500000Y-87500000D02*
X78500000Y-85500000D01*
X76500000Y-87500000D02*
X76500000Y-85500000D01*
X74500000Y-83500000D02*
X74500000Y-82500000D01*
X74500000Y-82500000D02*
X74000000Y-82000000D01*
X74500000Y-87500000D02*
X74500000Y-85500000D01*
X74500000Y-91500000D02*
X74500000Y-89500000D01*
D21*
X79250000Y-73000000D02*
X79250000Y-73500000D01*
X80050000Y-74050000D02*
X79800000Y-74050000D01*
X79800000Y-74050000D02*
X79250000Y-73500000D01*
X77000000Y-79800000D02*
X77000000Y-81000000D01*
X81500000Y-79800000D02*
X81500000Y-81000000D01*
X68000000Y-79800000D02*
X68000000Y-81000000D01*
X63500000Y-79800000D02*
X63500000Y-81000000D01*
X80500000Y-88550000D02*
X80500000Y-87500000D01*
X78500000Y-88550000D02*
X78500000Y-87500000D01*
X76500000Y-88550000D02*
X76500000Y-87500000D01*
X72300000Y-74050000D02*
X72300000Y-73200000D01*
X72300000Y-73200000D02*
X72500000Y-73000000D01*
X67300000Y-74050000D02*
X67300000Y-73200000D01*
X67300000Y-73200000D02*
X67500000Y-73000000D01*
X82500000Y-88550000D02*
X82500000Y-87500000D01*
X69500000Y-88550000D02*
X69500000Y-87500000D01*
X67500000Y-88550000D02*
X67500000Y-87500000D01*
D24*
X58700000Y-52500000D02*
X57500000Y-52500000D01*
X58000000Y-69000000D02*
X58000000Y-67500000D01*
X58000000Y-69000000D02*
X56750000Y-69000000D01*
X58000000Y-69000000D02*
X58000000Y-70500000D01*
X57750000Y-79250000D02*
X57750000Y-77750000D01*
X57750000Y-79250000D02*
X57750000Y-80750000D01*
X57750000Y-79250000D02*
X56500000Y-79250000D01*
X59050000Y-89750000D02*
X59050000Y-90950000D01*
X59050000Y-90950000D02*
X58500000Y-91500000D01*
X59950000Y-89750000D02*
X59950000Y-90950000D01*
X59950000Y-90950000D02*
X60500000Y-91500000D01*
D23*
X60500000Y-91500000D02*
X60500000Y-89500000D01*
X60500000Y-89500000D02*
X60500000Y-77000000D01*
D24*
X59950000Y-89750000D02*
X60250000Y-89750000D01*
X60250000Y-89750000D02*
X60500000Y-89500000D01*
X60750000Y-79250000D02*
X60750000Y-77350000D01*
X60750000Y-77350000D02*
X59500000Y-76100000D01*
X60500000Y-77000000D02*
X60400000Y-77000000D01*
X60400000Y-77000000D02*
X59500000Y-76100000D01*
D23*
X61000000Y-69000000D02*
X61000000Y-64540000D01*
X61000000Y-64540000D02*
X63000000Y-62540000D01*
D21*
X59500000Y-72400000D02*
X60350000Y-72400000D01*
X60350000Y-72400000D02*
X61000000Y-71750000D01*
D23*
X61000000Y-69000000D02*
X61000000Y-71750000D01*
D21*
X83000000Y-78200000D02*
X84500000Y-78200000D01*
X83000000Y-78200000D02*
X83000000Y-74000000D01*
X83000000Y-74000000D02*
X81000000Y-72000000D01*
D22*
X83000000Y-78200000D02*
X83025000Y-78200000D01*
D21*
X87030000Y-65710000D02*
X86320000Y-65000000D01*
X86320000Y-65000000D02*
X82094998Y-65000000D01*
X82094998Y-65000000D02*
X81000000Y-66094998D01*
X81000000Y-66094998D02*
X81000000Y-72000000D01*
X75500000Y-82250000D02*
X74000000Y-80750000D01*
X74000000Y-80750000D02*
X74000000Y-79800000D01*
X75500000Y-89060000D02*
X75500000Y-82250000D01*
X76500000Y-89450000D02*
X75890000Y-89450000D01*
X75890000Y-89450000D02*
X75500000Y-89060000D01*
X76500000Y-91500000D02*
X76500000Y-89450000D01*
X77500000Y-82750000D02*
X75500000Y-80750000D01*
X75500000Y-80750000D02*
X75500000Y-79800000D01*
X77500000Y-89060000D02*
X77500000Y-82750000D01*
X78500000Y-89450000D02*
X77890000Y-89450000D01*
X77890000Y-89450000D02*
X77500000Y-89060000D01*
X78500000Y-91500000D02*
X78500000Y-89450000D01*
X79500000Y-81750000D02*
X78500000Y-80750000D01*
X78500000Y-80750000D02*
X78500000Y-79800000D01*
X79500000Y-89060000D02*
X79500000Y-81750000D01*
X80500000Y-89450000D02*
X79890000Y-89450000D01*
X79890000Y-89450000D02*
X79500000Y-89060000D01*
X80500000Y-91500000D02*
X80500000Y-89450000D01*
X81500000Y-82250000D02*
X80000000Y-80750000D01*
X80000000Y-80750000D02*
X80000000Y-79800000D01*
X81500000Y-89060000D02*
X81500000Y-82250000D01*
X82500000Y-89450000D02*
X81890000Y-89450000D01*
X81890000Y-89450000D02*
X81500000Y-89060000D01*
X82500000Y-91500000D02*
X82500000Y-89450000D01*
X67500000Y-89450000D02*
X66890000Y-89450000D01*
X66890000Y-89450000D02*
X66500000Y-89060000D01*
X66500000Y-89060000D02*
X66500000Y-80575000D01*
X66500000Y-80575000D02*
X66500000Y-79800000D01*
X67500000Y-91500000D02*
X67500000Y-89450000D01*
X68500000Y-82000000D02*
X69500000Y-81000000D01*
X69500000Y-81000000D02*
X69500000Y-79800000D01*
X68500000Y-89060000D02*
X68500000Y-82000000D01*
X69500000Y-89450000D02*
X68890000Y-89450000D01*
X68890000Y-89450000D02*
X68500000Y-89060000D01*
X69500000Y-91500000D02*
X69500000Y-89450000D01*
X84500000Y-67550000D02*
X86330000Y-67550000D01*
X86330000Y-67550000D02*
X87030000Y-68250000D01*
D22*
X86530000Y-67750000D02*
X87030000Y-68250000D01*
X85000001Y-69500001D02*
X84950000Y-69450000D01*
X84950000Y-69450000D02*
X84500000Y-69450000D01*
X87630001Y-69500001D02*
X85000001Y-69500001D01*
X89570000Y-68250000D02*
X88320000Y-69500000D01*
X88320000Y-69500000D02*
X87630001Y-69500001D01*
D21*
X75600000Y-77800000D02*
X75600000Y-66650000D01*
X75600000Y-66650000D02*
X80330001Y-61919999D01*
X75500000Y-77900000D02*
X75600000Y-77800000D01*
X75500000Y-78200000D02*
X75500000Y-77900000D01*
X80330001Y-61919999D02*
X85580001Y-61919999D01*
D22*
X88319999Y-61919999D02*
X85580001Y-61919999D01*
X89570000Y-63170000D02*
X88319999Y-61919999D01*
D21*
X72300000Y-75000000D02*
X71450000Y-75000000D01*
X69500000Y-77425000D02*
X69500000Y-78200000D01*
X71450000Y-75000000D02*
X71000000Y-75450000D01*
X71000000Y-75450000D02*
X71000000Y-76500000D01*
X71000000Y-76500000D02*
X70500000Y-77000000D01*
X70500000Y-77000000D02*
X69925000Y-77000000D01*
X69925000Y-77000000D02*
X69500000Y-77425000D01*
X65000000Y-78200000D02*
X65750000Y-78200000D01*
X65750000Y-78200000D02*
X66500000Y-78200000D01*
X65050000Y-74050000D02*
X65750000Y-74750000D01*
X65750000Y-74750000D02*
X65750000Y-78200000D01*
X64700000Y-74050000D02*
X65050000Y-74050000D01*
X66250000Y-77950000D02*
X66500000Y-78200000D01*
X74000000Y-78200000D02*
X74000000Y-65750000D01*
X74000000Y-65750000D02*
X82949990Y-56800010D01*
X82949990Y-56800010D02*
X86299992Y-56800010D01*
X86299992Y-56800010D02*
X86300001Y-56800001D01*
D22*
X88319999Y-56150001D02*
X87669999Y-56800001D01*
X87669999Y-56800001D02*
X86300001Y-56800001D01*
X88319999Y-54260001D02*
X88319999Y-56150001D01*
X89570000Y-53010000D02*
X88319999Y-54260001D01*
D21*
X83000000Y-67550000D02*
X83000000Y-68600000D01*
X85275000Y-72250000D02*
X82250000Y-72250000D01*
X83000000Y-68600000D02*
X83000000Y-69450000D01*
X85500000Y-79750000D02*
X85500000Y-72475000D01*
X85500000Y-72475000D02*
X85275000Y-72250000D01*
X82250000Y-72250000D02*
X81750000Y-71750000D01*
X81750000Y-71750000D02*
X81750000Y-68750000D01*
X81750000Y-68750000D02*
X82000000Y-68500000D01*
X82000000Y-68500000D02*
X82900000Y-68500000D01*
X82900000Y-68500000D02*
X83000000Y-68600000D01*
D22*
X77000000Y-78200000D02*
X76975000Y-78200000D01*
X76975000Y-78200000D02*
X76150001Y-79024999D01*
X73259999Y-79024999D02*
X71425000Y-80859998D01*
X76150001Y-79024999D02*
X73259999Y-79024999D01*
X71425000Y-80859998D02*
X71425000Y-81000000D01*
D21*
X77450000Y-75950000D02*
X77450000Y-77750000D01*
X77450000Y-77750000D02*
X77000000Y-78200000D01*
X71000000Y-80575000D02*
X71425000Y-81000000D01*
X71425000Y-81000000D02*
X72000000Y-81575000D01*
X85500000Y-79750000D02*
X85450000Y-79800000D01*
X85450000Y-79800000D02*
X84500000Y-79800000D01*
D22*
X71000000Y-79800000D02*
X71025000Y-79800000D01*
D21*
X62250000Y-78650000D02*
X62250000Y-80950000D01*
X62250000Y-80950000D02*
X63000000Y-81700000D01*
X63500000Y-78200000D02*
X62700000Y-78200000D01*
X62700000Y-78200000D02*
X62250000Y-78650000D01*
X72000000Y-95400000D02*
X72000000Y-81750000D01*
X71000000Y-79800000D02*
X71000000Y-80575000D01*
X72000000Y-81575000D02*
X72000000Y-81750000D01*
X63800000Y-75950000D02*
X63500000Y-76250000D01*
X63500000Y-76250000D02*
X63500000Y-78200000D01*
X64700000Y-75950000D02*
X63800000Y-75950000D01*
X85500000Y-94300000D02*
X85500000Y-81750000D01*
X85500000Y-81750000D02*
X85500000Y-79750000D01*
D24*
X63000000Y-95400000D02*
X56600000Y-95400000D01*
X56600000Y-95400000D02*
X55600000Y-94400000D01*
X55600000Y-57200000D02*
X55239999Y-56839999D01*
X55600000Y-94400000D02*
X55600000Y-57200000D01*
X72000000Y-95400000D02*
X84400000Y-95400000D01*
X63000000Y-95400000D02*
X72000000Y-95400000D01*
D21*
X63000000Y-95400000D02*
X63000000Y-81700000D01*
D24*
X84400000Y-95400000D02*
X85500000Y-94300000D01*
D22*
X51470000Y-55550000D02*
X52759999Y-56839999D01*
X52759999Y-56839999D02*
X55239999Y-56839999D01*
D21*
X69700000Y-72250000D02*
X69700001Y-72249999D01*
X69700001Y-72249999D02*
X72860001Y-72249999D01*
X72860001Y-72249999D02*
X73250001Y-72639999D01*
X73250001Y-72639999D02*
X73250001Y-76749999D01*
X73250001Y-76749999D02*
X71800000Y-78200000D01*
X71800000Y-78200000D02*
X71000000Y-78200000D01*
X69700000Y-74050000D02*
X69700000Y-72250000D01*
X69700000Y-72250000D02*
X69700000Y-71750000D01*
X69700000Y-74050000D02*
X69950000Y-74050000D01*
X69700000Y-71750000D02*
X69700000Y-61689998D01*
X76789997Y-54600001D02*
X86080001Y-54600001D01*
X69700000Y-61689998D02*
X76789997Y-54600001D01*
X86080001Y-54600001D02*
X87030000Y-55550000D01*
X87030000Y-55550000D02*
X86800000Y-55550000D01*
X86980000Y-55500000D02*
X87030000Y-55550000D01*
X67300000Y-75000000D02*
X68150000Y-75000000D01*
X68150000Y-75000000D02*
X68500000Y-74650000D01*
X86240000Y-53800000D02*
X87030000Y-53010000D01*
X68500000Y-74650000D02*
X68500000Y-73769998D01*
X68500000Y-73769998D02*
X69000000Y-73269998D01*
X69000000Y-73269998D02*
X69000000Y-61400000D01*
X69000000Y-61400000D02*
X76600000Y-53800000D01*
X76600000Y-53800000D02*
X86240000Y-53800000D01*
X84500000Y-65950000D02*
X83000000Y-65950000D01*
X84500000Y-71050000D02*
X83000000Y-71050000D01*
X81500000Y-74750000D02*
X81250000Y-75000000D01*
X81250000Y-75000000D02*
X80050000Y-75000000D01*
X81500000Y-73500000D02*
X81500000Y-74750000D01*
X80250000Y-72250000D02*
X81500000Y-73500000D01*
X80250000Y-66000000D02*
X80250000Y-72250000D01*
X81790001Y-64459999D02*
X80250000Y-66000000D01*
X85790001Y-64459999D02*
X81790001Y-64459999D01*
D22*
X88319999Y-64459999D02*
X85790001Y-64459999D01*
X89570000Y-65710000D02*
X88319999Y-64459999D01*
D21*
X77450000Y-74050000D02*
X78300000Y-74050000D01*
X78300000Y-74050000D02*
X78500000Y-74250000D01*
X78500000Y-77425000D02*
X78500000Y-78200000D01*
X78500000Y-74250000D02*
X78500000Y-77425000D01*
X77450000Y-74050000D02*
X77200000Y-74050000D01*
D22*
X81500000Y-78200000D02*
X81525000Y-78200000D01*
X81525000Y-78200000D02*
X83000000Y-79675000D01*
X83000000Y-79675000D02*
X83000000Y-79800000D01*
D21*
X81500000Y-78200000D02*
X80000000Y-78200000D01*
D22*
G36*
X73611091Y-81138909D02*
X74950000Y-82477817D01*
X74950000Y-89060000D01*
X74991866Y-89270476D01*
X75111091Y-89448909D01*
X75501091Y-89838909D01*
X75679524Y-89958134D01*
X75866041Y-89995234D01*
X75897660Y-90044372D01*
X75950000Y-90080134D01*
X75950000Y-90428854D01*
X75821143Y-90482097D01*
X75502292Y-90800391D01*
X75311922Y-90723433D01*
X74535355Y-91500000D01*
X74549498Y-91514143D01*
X74514143Y-91549498D01*
X74500000Y-91535355D01*
X74485858Y-91549498D01*
X74450503Y-91514143D01*
X74464645Y-91500000D01*
X73688078Y-90723433D01*
X73600000Y-90759039D01*
X73600000Y-90688078D01*
X73723433Y-90688078D01*
X74500000Y-91464645D01*
X75276567Y-90688078D01*
X75198786Y-90495672D01*
X74761254Y-90304709D01*
X74283949Y-90295718D01*
X73839536Y-90470067D01*
X73801214Y-90495672D01*
X73723433Y-90688078D01*
X73600000Y-90688078D01*
X73600000Y-81122310D01*
X73611091Y-81138909D01*
X73611091Y-81138909D01*
G37*
X73611091Y-81138909D02*
X74950000Y-82477817D01*
X74950000Y-89060000D01*
X74991866Y-89270476D01*
X75111091Y-89448909D01*
X75501091Y-89838909D01*
X75679524Y-89958134D01*
X75866041Y-89995234D01*
X75897660Y-90044372D01*
X75950000Y-90080134D01*
X75950000Y-90428854D01*
X75821143Y-90482097D01*
X75502292Y-90800391D01*
X75311922Y-90723433D01*
X74535355Y-91500000D01*
X74549498Y-91514143D01*
X74514143Y-91549498D01*
X74500000Y-91535355D01*
X74485858Y-91549498D01*
X74450503Y-91514143D01*
X74464645Y-91500000D01*
X73688078Y-90723433D01*
X73600000Y-90759039D01*
X73600000Y-90688078D01*
X73723433Y-90688078D01*
X74500000Y-91464645D01*
X75276567Y-90688078D01*
X75198786Y-90495672D01*
X74761254Y-90304709D01*
X74283949Y-90295718D01*
X73839536Y-90470067D01*
X73801214Y-90495672D01*
X73723433Y-90688078D01*
X73600000Y-90688078D01*
X73600000Y-81122310D01*
X73611091Y-81138909D01*
G36*
X76273418Y-80614104D02*
X76400000Y-80666536D01*
X76400000Y-80750000D01*
X76407879Y-80788906D01*
X76430273Y-80821681D01*
X76463654Y-80843161D01*
X76500000Y-80850000D01*
X77969891Y-80850000D01*
X77991866Y-80960476D01*
X78111091Y-81138909D01*
X78950000Y-81977817D01*
X78950000Y-87865033D01*
X78889565Y-87840000D01*
X78625000Y-87840000D01*
X78525000Y-87940000D01*
X78525000Y-88525000D01*
X78545000Y-88525000D01*
X78545000Y-88575000D01*
X78525000Y-88575000D01*
X78525000Y-88595000D01*
X78475000Y-88595000D01*
X78475000Y-88575000D01*
X78455000Y-88575000D01*
X78455000Y-88525000D01*
X78475000Y-88525000D01*
X78475000Y-87940000D01*
X78375000Y-87840000D01*
X78110435Y-87840000D01*
X78050000Y-87865033D01*
X78050000Y-82750000D01*
X78008134Y-82539524D01*
X77888909Y-82361091D01*
X76169242Y-80641424D01*
X76249253Y-80589939D01*
X76273418Y-80614104D01*
X76273418Y-80614104D01*
G37*
X76273418Y-80614104D02*
X76400000Y-80666536D01*
X76400000Y-80750000D01*
X76407879Y-80788906D01*
X76430273Y-80821681D01*
X76463654Y-80843161D01*
X76500000Y-80850000D01*
X77969891Y-80850000D01*
X77991866Y-80960476D01*
X78111091Y-81138909D01*
X78950000Y-81977817D01*
X78950000Y-87865033D01*
X78889565Y-87840000D01*
X78625000Y-87840000D01*
X78525000Y-87940000D01*
X78525000Y-88525000D01*
X78545000Y-88525000D01*
X78545000Y-88575000D01*
X78525000Y-88575000D01*
X78525000Y-88595000D01*
X78475000Y-88595000D01*
X78475000Y-88575000D01*
X78455000Y-88575000D01*
X78455000Y-88525000D01*
X78475000Y-88525000D01*
X78475000Y-87940000D01*
X78375000Y-87840000D01*
X78110435Y-87840000D01*
X78050000Y-87865033D01*
X78050000Y-82750000D01*
X78008134Y-82539524D01*
X77888909Y-82361091D01*
X76169242Y-80641424D01*
X76249253Y-80589939D01*
X76273418Y-80614104D01*
G36*
X76950000Y-82977818D02*
X76950000Y-87865033D01*
X76889565Y-87840000D01*
X76625000Y-87840000D01*
X76525000Y-87940000D01*
X76525000Y-88525000D01*
X76545000Y-88525000D01*
X76545000Y-88575000D01*
X76525000Y-88575000D01*
X76525000Y-88595000D01*
X76475000Y-88595000D01*
X76475000Y-88575000D01*
X76455000Y-88575000D01*
X76455000Y-88525000D01*
X76475000Y-88525000D01*
X76475000Y-87940000D01*
X76375000Y-87840000D01*
X76110435Y-87840000D01*
X76050000Y-87865033D01*
X76050000Y-82250000D01*
X76008134Y-82039524D01*
X76000941Y-82028759D01*
X76950000Y-82977818D01*
X76950000Y-82977818D01*
G37*
X76950000Y-82977818D02*
X76950000Y-87865033D01*
X76889565Y-87840000D01*
X76625000Y-87840000D01*
X76525000Y-87940000D01*
X76525000Y-88525000D01*
X76545000Y-88525000D01*
X76545000Y-88575000D01*
X76525000Y-88575000D01*
X76525000Y-88595000D01*
X76475000Y-88595000D01*
X76475000Y-88575000D01*
X76455000Y-88575000D01*
X76455000Y-88525000D01*
X76475000Y-88525000D01*
X76475000Y-87940000D01*
X76375000Y-87840000D01*
X76110435Y-87840000D01*
X76050000Y-87865033D01*
X76050000Y-82250000D01*
X76008134Y-82039524D01*
X76000941Y-82028759D01*
X76950000Y-82977818D01*
G36*
X85680235Y-62900290D02*
X85679799Y-63400000D01*
X81750000Y-63400000D01*
X81711094Y-63407879D01*
X81679289Y-63429289D01*
X79429289Y-65679289D01*
X79407350Y-65712371D01*
X79400000Y-65750000D01*
X79400000Y-70208578D01*
X76429289Y-73179289D01*
X76407350Y-73212371D01*
X76400000Y-73250000D01*
X76400000Y-77335981D01*
X76351769Y-77345056D01*
X76249129Y-77411103D01*
X76158671Y-77349296D01*
X76150000Y-77347540D01*
X76150000Y-66877818D01*
X80557818Y-62469999D01*
X85580001Y-62469999D01*
X85790477Y-62428133D01*
X85802650Y-62419999D01*
X85879669Y-62419999D01*
X85680235Y-62900290D01*
X85680235Y-62900290D01*
G37*
X85680235Y-62900290D02*
X85679799Y-63400000D01*
X81750000Y-63400000D01*
X81711094Y-63407879D01*
X81679289Y-63429289D01*
X79429289Y-65679289D01*
X79407350Y-65712371D01*
X79400000Y-65750000D01*
X79400000Y-70208578D01*
X76429289Y-73179289D01*
X76407350Y-73212371D01*
X76400000Y-73250000D01*
X76400000Y-77335981D01*
X76351769Y-77345056D01*
X76249129Y-77411103D01*
X76158671Y-77349296D01*
X76150000Y-77347540D01*
X76150000Y-66877818D01*
X80557818Y-62469999D01*
X85580001Y-62469999D01*
X85790477Y-62428133D01*
X85802650Y-62419999D01*
X85879669Y-62419999D01*
X85680235Y-62900290D01*
G36*
X85680235Y-57820290D02*
X85679766Y-58357353D01*
X85884858Y-58853715D01*
X86264288Y-59233807D01*
X86568330Y-59360056D01*
X86266285Y-59484858D01*
X85886193Y-59864288D01*
X85680235Y-60360290D01*
X85679766Y-60897353D01*
X85884858Y-61393715D01*
X85911096Y-61419999D01*
X85802650Y-61419999D01*
X85790477Y-61411865D01*
X85580001Y-61369999D01*
X80330006Y-61369999D01*
X80330001Y-61369998D01*
X80119525Y-61411865D01*
X79941092Y-61531090D01*
X79941090Y-61531093D01*
X75211091Y-66261091D01*
X75091866Y-66439524D01*
X75050000Y-66650000D01*
X75050000Y-77317164D01*
X75000000Y-77317164D01*
X74851769Y-77345056D01*
X74749129Y-77411103D01*
X74658671Y-77349296D01*
X74550000Y-77327289D01*
X74550000Y-65977818D01*
X83177808Y-57350010D01*
X85875512Y-57350010D01*
X85680235Y-57820290D01*
X85680235Y-57820290D01*
G37*
X85680235Y-57820290D02*
X85679766Y-58357353D01*
X85884858Y-58853715D01*
X86264288Y-59233807D01*
X86568330Y-59360056D01*
X86266285Y-59484858D01*
X85886193Y-59864288D01*
X85680235Y-60360290D01*
X85679766Y-60897353D01*
X85884858Y-61393715D01*
X85911096Y-61419999D01*
X85802650Y-61419999D01*
X85790477Y-61411865D01*
X85580001Y-61369999D01*
X80330006Y-61369999D01*
X80330001Y-61369998D01*
X80119525Y-61411865D01*
X79941092Y-61531090D01*
X79941090Y-61531093D01*
X75211091Y-66261091D01*
X75091866Y-66439524D01*
X75050000Y-66650000D01*
X75050000Y-77317164D01*
X75000000Y-77317164D01*
X74851769Y-77345056D01*
X74749129Y-77411103D01*
X74658671Y-77349296D01*
X74550000Y-77327289D01*
X74550000Y-65977818D01*
X83177808Y-57350010D01*
X85875512Y-57350010D01*
X85680235Y-57820290D01*
G36*
X85680235Y-55280290D02*
X85679766Y-55817353D01*
X85858536Y-56250010D01*
X82949990Y-56250010D01*
X82739514Y-56291876D01*
X82561081Y-56411101D01*
X73611091Y-65361091D01*
X73491866Y-65539524D01*
X73450000Y-65750000D01*
X73450000Y-72062180D01*
X73248910Y-71861090D01*
X73070477Y-71741865D01*
X72860001Y-71699999D01*
X70420184Y-71699999D01*
X70250000Y-71444723D01*
X70250000Y-61917816D01*
X77017815Y-55150001D01*
X85734336Y-55150001D01*
X85680235Y-55280290D01*
X85680235Y-55280290D01*
G37*
X85680235Y-55280290D02*
X85679766Y-55817353D01*
X85858536Y-56250010D01*
X82949990Y-56250010D01*
X82739514Y-56291876D01*
X82561081Y-56411101D01*
X73611091Y-65361091D01*
X73491866Y-65539524D01*
X73450000Y-65750000D01*
X73450000Y-72062180D01*
X73248910Y-71861090D01*
X73070477Y-71741865D01*
X72860001Y-71699999D01*
X70420184Y-71699999D01*
X70250000Y-71444723D01*
X70250000Y-61917816D01*
X77017815Y-55150001D01*
X85734336Y-55150001D01*
X85680235Y-55280290D01*
M02*
