G04 #@! TF.FileFunction,Copper,L1,Top,Signal*
%FSLAX46Y46*%
G04 Gerber Fmt 4.6, Leading zero omitted, Abs format (unit mm)*
G04 Created by KiCad (PCBNEW 0.201512291232+6408~40~ubuntu14.04.1-stable) date Sun 27 Mar 2016 18:20:16 BST*
%MOMM*%
G01*
G04 APERTURE LIST*
%ADD10C,0.100000*%
%ADD11R,0.950000X1.000000*%
%ADD12R,1.150000X1.800000*%
%ADD13R,1.000000X0.950000*%
%ADD14R,0.620000X0.620000*%
%ADD15C,1.500000*%
%ADD16C,1.900000*%
%ADD17C,1.600000*%
%ADD18R,4.200000X1.400000*%
%ADD19C,0.800000*%
%ADD20C,1.000000*%
%ADD21C,0.300000*%
%ADD22C,0.200000*%
%ADD23C,0.500000*%
G04 APERTURE END LIST*
D10*
D11*
X60300000Y-52500000D03*
X58700000Y-52500000D03*
D12*
X60750000Y-79250000D03*
X57750000Y-79250000D03*
X61000000Y-69000000D03*
X58000000Y-69000000D03*
D13*
X80500000Y-76050000D03*
X80500000Y-74450000D03*
X82500000Y-76050000D03*
X82500000Y-74450000D03*
D14*
X59950000Y-89750000D03*
X59050000Y-89750000D03*
X76500000Y-89450000D03*
X76500000Y-88550000D03*
X78500000Y-89450000D03*
X78500000Y-88550000D03*
X80500000Y-89450000D03*
X80500000Y-88550000D03*
X82500000Y-89450000D03*
X82500000Y-88550000D03*
X67500000Y-89450000D03*
X67500000Y-88550000D03*
X69500000Y-89450000D03*
X69500000Y-88550000D03*
D11*
X83800000Y-65750000D03*
X82200000Y-65750000D03*
X83800000Y-71750000D03*
X82200000Y-71750000D03*
D15*
X63000000Y-62540000D03*
X63000000Y-60000000D03*
X63000000Y-57460000D03*
D16*
X51470000Y-98730000D03*
X54010000Y-98730000D03*
X54010000Y-96190000D03*
X51470000Y-96190000D03*
X51470000Y-93650000D03*
X54010000Y-93650000D03*
X54010000Y-91110000D03*
X51470000Y-91110000D03*
X51470000Y-88570000D03*
X54010000Y-88570000D03*
X51470000Y-86030000D03*
X51470000Y-83490000D03*
X51470000Y-80950000D03*
X51470000Y-78410000D03*
X51470000Y-75870000D03*
X51470000Y-73330000D03*
X51470000Y-70790000D03*
X51470000Y-68250000D03*
X51470000Y-65710000D03*
X51470000Y-63170000D03*
X51470000Y-60630000D03*
X51470000Y-58090000D03*
X51470000Y-55550000D03*
X51470000Y-53010000D03*
X54010000Y-53010000D03*
X54010000Y-55550000D03*
X54010000Y-58090000D03*
X54010000Y-60630000D03*
X54010000Y-63170000D03*
X54010000Y-65710000D03*
X54010000Y-68250000D03*
X54010000Y-70790000D03*
X54010000Y-73330000D03*
X54010000Y-75870000D03*
X54010000Y-78410000D03*
X54010000Y-80950000D03*
X54010000Y-83490000D03*
X54010000Y-86030000D03*
X51470000Y-50470000D03*
X54010000Y-50470000D03*
X87030000Y-98730000D03*
X89570000Y-98730000D03*
X87030000Y-96190000D03*
X89570000Y-96190000D03*
X89570000Y-93650000D03*
X87030000Y-93650000D03*
X87030000Y-91110000D03*
X89570000Y-91110000D03*
X89570000Y-88570000D03*
X87030000Y-88570000D03*
X87030000Y-86030000D03*
X89570000Y-86030000D03*
X89570000Y-83490000D03*
X87030000Y-83490000D03*
X87030000Y-80950000D03*
X89570000Y-80950000D03*
X89570000Y-78410000D03*
X87030000Y-78410000D03*
X87030000Y-75870000D03*
X89570000Y-75870000D03*
X89570000Y-73330000D03*
X87030000Y-73330000D03*
X87030000Y-70790000D03*
X89570000Y-70790000D03*
X87030000Y-68250000D03*
X89570000Y-68250000D03*
X87030000Y-65710000D03*
X89570000Y-65710000D03*
X87030000Y-63170000D03*
X89570000Y-63170000D03*
X87030000Y-60630000D03*
X89570000Y-60630000D03*
X87030000Y-58090000D03*
X89570000Y-58090000D03*
X87030000Y-55550000D03*
X89570000Y-55550000D03*
X87030000Y-53010000D03*
X89570000Y-53010000D03*
X87030000Y-50470000D03*
X89570000Y-50470000D03*
D17*
X58500000Y-91500000D03*
X60500000Y-91500000D03*
X74500000Y-91500000D03*
X76500000Y-91500000D03*
X78500000Y-91500000D03*
X80500000Y-91500000D03*
X82500000Y-91500000D03*
X65500000Y-91500000D03*
X67500000Y-91500000D03*
X69500000Y-91500000D03*
D18*
X59500000Y-76100000D03*
X59500000Y-72400000D03*
D13*
X82500000Y-79800000D03*
X82500000Y-78200000D03*
X80500000Y-79800000D03*
X80500000Y-78200000D03*
X78500000Y-79800000D03*
X78500000Y-78200000D03*
X76500000Y-79800000D03*
X76500000Y-78200000D03*
X69500000Y-79800000D03*
X69500000Y-78200000D03*
X67500000Y-79800000D03*
X67500000Y-78200000D03*
D11*
X83800000Y-67750000D03*
X82200000Y-67750000D03*
X83800000Y-69750000D03*
X82200000Y-69750000D03*
D19*
X84500000Y-63000000D03*
X82500000Y-63000000D03*
X80500000Y-63000000D03*
X79500000Y-65000000D03*
X79500000Y-67000000D03*
X79500000Y-69000000D03*
X79500000Y-71000000D03*
X79250010Y-77000000D03*
X80050010Y-82000000D03*
X80050010Y-84000000D03*
X80050010Y-86000000D03*
X80500000Y-61000000D03*
X82500000Y-61000000D03*
X84500000Y-61000000D03*
X84500000Y-58000000D03*
X82500000Y-58000000D03*
X80500000Y-58000000D03*
X78500000Y-59000000D03*
X77500000Y-61000000D03*
X77500000Y-63000000D03*
X77500000Y-65000000D03*
X77500000Y-67000000D03*
X77500000Y-69000000D03*
X77500000Y-71000000D03*
X77500000Y-73000000D03*
X77500000Y-75000000D03*
X77500000Y-77000000D03*
X78500000Y-82000000D03*
X78500000Y-84000000D03*
X78500000Y-86000000D03*
X84500000Y-56000000D03*
X82500000Y-56000000D03*
X80500000Y-56000000D03*
X78500000Y-56000000D03*
X76500000Y-56000000D03*
X75500000Y-57000000D03*
X75500000Y-59000000D03*
X75500000Y-61000000D03*
X75500000Y-63000000D03*
X75500000Y-65000000D03*
X75500000Y-67000000D03*
X75500000Y-69000000D03*
X75500000Y-71000000D03*
X75500000Y-73000000D03*
X75500000Y-75000000D03*
X75500000Y-77000000D03*
X76000000Y-82000000D03*
X76000000Y-84000000D03*
X76000000Y-86000000D03*
X82500000Y-73250000D03*
X80500000Y-73250000D03*
X82500000Y-87500000D03*
X80500000Y-87500000D03*
X78500000Y-87500000D03*
X76500000Y-87500000D03*
X85000000Y-65750000D03*
X85000000Y-71750000D03*
X69500000Y-87500000D03*
X67500000Y-87500000D03*
X57500000Y-52500000D03*
X58000000Y-67500000D03*
X56750000Y-69000000D03*
X58000000Y-70500000D03*
X57750000Y-77750000D03*
X57750000Y-80750000D03*
X56500000Y-79250000D03*
D20*
X54010000Y-50470000D02*
X59770000Y-50470000D01*
X59770000Y-50470000D02*
X60300000Y-51000000D01*
X60300000Y-51000000D02*
X60300000Y-52500000D01*
X60300000Y-52500000D02*
X60300000Y-54760000D01*
X60300000Y-54760000D02*
X63000000Y-57460000D01*
D21*
X80500000Y-63000000D02*
X82500000Y-63000000D01*
X79500000Y-67000000D02*
X79500000Y-65000000D01*
X79500000Y-71000000D02*
X79500000Y-69000000D01*
X80050010Y-84000000D02*
X80050010Y-82000000D01*
X80500000Y-87500000D02*
X80500000Y-86449990D01*
X80500000Y-86449990D02*
X80050010Y-86000000D01*
X82500000Y-61000000D02*
X80500000Y-61000000D01*
X84500000Y-58000000D02*
X84500000Y-61000000D01*
X80500000Y-58000000D02*
X82500000Y-58000000D01*
X77500000Y-61000000D02*
X77500000Y-60000000D01*
X77500000Y-60000000D02*
X78500000Y-59000000D01*
X77500000Y-65000000D02*
X77500000Y-63000000D01*
X77500000Y-69000000D02*
X77500000Y-67000000D01*
X77500000Y-73000000D02*
X77500000Y-71000000D01*
X77500000Y-77000000D02*
X77500000Y-75000000D01*
X78500000Y-84000000D02*
X78500000Y-82000000D01*
X78500000Y-87500000D02*
X78500000Y-86000000D01*
X80500000Y-56000000D02*
X82500000Y-56000000D01*
X76500000Y-56000000D02*
X78500000Y-56000000D01*
X75500000Y-59000000D02*
X75500000Y-57000000D01*
X75500000Y-63000000D02*
X75500000Y-61000000D01*
X75500000Y-67000000D02*
X75500000Y-65000000D01*
X75500000Y-71000000D02*
X75500000Y-69000000D01*
X75500000Y-75000000D02*
X75500000Y-73000000D01*
X76000000Y-82000000D02*
X75600001Y-81600001D01*
X75600001Y-81600001D02*
X75600001Y-77100001D01*
X75600001Y-77100001D02*
X75500000Y-77000000D01*
X76000000Y-86000000D02*
X76000000Y-84000000D01*
X82500000Y-74450000D02*
X82500000Y-73250000D01*
X80500000Y-74450000D02*
X80500000Y-73250000D01*
X82500000Y-88550000D02*
X82500000Y-87500000D01*
X80500000Y-88550000D02*
X80500000Y-87500000D01*
X78500000Y-88550000D02*
X78500000Y-87500000D01*
X76500000Y-88550000D02*
X76500000Y-87500000D01*
D22*
X83800000Y-65750000D02*
X85000000Y-65750000D01*
X83800000Y-71750000D02*
X85000000Y-71750000D01*
D21*
X69500000Y-88550000D02*
X69500000Y-87500000D01*
X67500000Y-88550000D02*
X67500000Y-87500000D01*
D23*
X58700000Y-52500000D02*
X57500000Y-52500000D01*
X58000000Y-69000000D02*
X58000000Y-67500000D01*
X58000000Y-69000000D02*
X56750000Y-69000000D01*
X58000000Y-69000000D02*
X58000000Y-70500000D01*
X57750000Y-79250000D02*
X57750000Y-77750000D01*
X57750000Y-79250000D02*
X57750000Y-80750000D01*
X57750000Y-79250000D02*
X56500000Y-79250000D01*
X59050000Y-89750000D02*
X59050000Y-90950000D01*
X59050000Y-90950000D02*
X58500000Y-91500000D01*
X59950000Y-89750000D02*
X59950000Y-90950000D01*
X59950000Y-90950000D02*
X60500000Y-91500000D01*
D20*
X60500000Y-91500000D02*
X60500000Y-89500000D01*
X60500000Y-89500000D02*
X60500000Y-77000000D01*
D23*
X59950000Y-89750000D02*
X60250000Y-89750000D01*
X60250000Y-89750000D02*
X60500000Y-89500000D01*
X60750000Y-79250000D02*
X60750000Y-77350000D01*
X60750000Y-77350000D02*
X59500000Y-76100000D01*
X60500000Y-77000000D02*
X60400000Y-77000000D01*
X60400000Y-77000000D02*
X59500000Y-76100000D01*
D20*
X61000000Y-69000000D02*
X61000000Y-64540000D01*
X61000000Y-64540000D02*
X63000000Y-62540000D01*
D21*
X59500000Y-72400000D02*
X60350000Y-72400000D01*
X60350000Y-72400000D02*
X61000000Y-71750000D01*
D20*
X61000000Y-69000000D02*
X61000000Y-71750000D01*
D22*
X89570000Y-65710000D02*
X88319999Y-64459999D01*
X88319999Y-64459999D02*
X81409300Y-64459999D01*
X81409300Y-64459999D02*
X80849990Y-65019309D01*
X80849990Y-65019309D02*
X80849990Y-71400010D01*
X80849990Y-71400010D02*
X79500000Y-72750000D01*
X79500000Y-72750000D02*
X79500000Y-75750000D01*
X79500000Y-75750000D02*
X79800000Y-76050000D01*
X79800000Y-76050000D02*
X80500000Y-76050000D01*
X80475000Y-76050000D02*
X80500000Y-76050000D01*
D21*
X80500000Y-78200000D02*
X80500000Y-76050000D01*
D22*
X87030000Y-65710000D02*
X86570000Y-65250000D01*
X86570000Y-65250000D02*
X85500000Y-65250000D01*
X85500000Y-65250000D02*
X85110009Y-64860009D01*
X85110009Y-64860009D02*
X81574989Y-64860009D01*
X81574989Y-64860009D02*
X81250000Y-65184998D01*
X81250000Y-65184998D02*
X81250000Y-72500000D01*
X81250000Y-72500000D02*
X81500000Y-72750000D01*
X81500000Y-72750000D02*
X81500000Y-75750000D01*
X81500000Y-75750000D02*
X81800000Y-76050000D01*
X81800000Y-76050000D02*
X82500000Y-76050000D01*
X82475000Y-76050000D02*
X82500000Y-76050000D01*
D21*
X82500000Y-78200000D02*
X82500000Y-76050000D01*
X76500000Y-89450000D02*
X77110000Y-89450000D01*
X77250001Y-81325001D02*
X76500000Y-80575000D01*
X77110000Y-89450000D02*
X77250001Y-89309999D01*
X77250001Y-89309999D02*
X77250001Y-81325001D01*
X76500000Y-80575000D02*
X76500000Y-79800000D01*
X76500000Y-91500000D02*
X76500000Y-89450000D01*
X78500000Y-89450000D02*
X79110000Y-89450000D01*
X79300000Y-81375000D02*
X78500000Y-80575000D01*
X79110000Y-89450000D02*
X79300000Y-89260000D01*
X79300000Y-89260000D02*
X79300000Y-81375000D01*
X78500000Y-80575000D02*
X78500000Y-79800000D01*
X78500000Y-91500000D02*
X78500000Y-89450000D01*
X80500000Y-89450000D02*
X81110000Y-89450000D01*
X81300000Y-89260000D02*
X81300000Y-81375000D01*
X81110000Y-89450000D02*
X81300000Y-89260000D01*
X81300000Y-81375000D02*
X80500000Y-80575000D01*
X80500000Y-80575000D02*
X80500000Y-79800000D01*
X80500000Y-91500000D02*
X80500000Y-89450000D01*
X82500000Y-89450000D02*
X83110000Y-89450000D01*
X83250001Y-81325001D02*
X82500000Y-80575000D01*
X83110000Y-89450000D02*
X83250001Y-89309999D01*
X83250001Y-89309999D02*
X83250001Y-81325001D01*
X82500000Y-80575000D02*
X82500000Y-79800000D01*
X82500000Y-91500000D02*
X82500000Y-89450000D01*
X67500000Y-89450000D02*
X68110000Y-89450000D01*
X68110000Y-89450000D02*
X68250001Y-89309999D01*
X68250001Y-81325001D02*
X67500000Y-80575000D01*
X67500000Y-80575000D02*
X67500000Y-79800000D01*
X68250001Y-89309999D02*
X68250001Y-81325001D01*
X67500000Y-91500000D02*
X67500000Y-89450000D01*
X69500000Y-89450000D02*
X70110000Y-89450000D01*
X70110000Y-89450000D02*
X70300000Y-89260000D01*
X70300000Y-89260000D02*
X70300000Y-81375000D01*
X70300000Y-81375000D02*
X69500000Y-80575000D01*
X69500000Y-80575000D02*
X69500000Y-79800000D01*
X69500000Y-91500000D02*
X69500000Y-89450000D01*
D22*
X82200000Y-65750000D02*
X82200000Y-66450000D01*
X82200000Y-66450000D02*
X82200000Y-67750000D01*
X82200000Y-69750000D02*
X82200000Y-70450000D01*
X82200000Y-70450000D02*
X82200000Y-71750000D01*
X83800000Y-67750000D02*
X86530000Y-67750000D01*
X86530000Y-67750000D02*
X87030000Y-68250000D01*
X83800000Y-69750000D02*
X84475000Y-69750000D01*
X84475000Y-69750000D02*
X84724999Y-69500001D01*
X84724999Y-69500001D02*
X88319999Y-69500001D01*
X88319999Y-69500001D02*
X88620001Y-69199999D01*
X88620001Y-69199999D02*
X89570000Y-68250000D01*
D21*
X80250000Y-62000000D02*
X85500000Y-62000000D01*
D22*
X88319999Y-61919999D02*
X85580001Y-61919999D01*
D21*
X85500000Y-62000000D02*
X86000000Y-62000000D01*
D22*
X89570000Y-63170000D02*
X88319999Y-61919999D01*
X85580001Y-61919999D02*
X85500000Y-62000000D01*
D21*
X78500000Y-63750000D02*
X80250000Y-62000000D01*
X78500000Y-78200000D02*
X78500000Y-63750000D01*
X71000000Y-54750000D02*
X69500000Y-56250000D01*
X69500000Y-56250000D02*
X69500000Y-57000000D01*
X86000000Y-54750000D02*
X71000000Y-54750000D01*
X86800000Y-55550000D02*
X86000000Y-54750000D01*
X87030000Y-55550000D02*
X86800000Y-55550000D01*
X69500000Y-78200000D02*
X69500000Y-57000000D01*
X86980000Y-55500000D02*
X87030000Y-55550000D01*
X68990000Y-53010000D02*
X67500000Y-54500000D01*
X67500000Y-54500000D02*
X67500000Y-78200000D01*
X87030000Y-53010000D02*
X68990000Y-53010000D01*
X86300001Y-56800001D02*
X78949999Y-56800001D01*
X78949999Y-56800001D02*
X76500000Y-59250000D01*
D22*
X89570000Y-53010000D02*
X88319999Y-54260001D01*
X88319999Y-54260001D02*
X88319999Y-56150001D01*
X87669999Y-56800001D02*
X86300001Y-56800001D01*
X88319999Y-56150001D02*
X87669999Y-56800001D01*
D21*
X76500000Y-78200000D02*
X76500000Y-59250000D01*
D22*
G36*
X85928556Y-57352647D02*
X85730226Y-57830279D01*
X85729774Y-58347452D01*
X85927271Y-58825429D01*
X86292647Y-59191444D01*
X86698985Y-59360170D01*
X86294571Y-59527271D01*
X85928556Y-59892647D01*
X85730226Y-60370279D01*
X85729774Y-60887452D01*
X85927271Y-61365429D01*
X86031658Y-61469999D01*
X85580001Y-61469999D01*
X85429174Y-61500000D01*
X80250000Y-61500000D01*
X80058658Y-61538060D01*
X80040656Y-61550089D01*
X79896447Y-61646446D01*
X78146447Y-63396447D01*
X78038060Y-63558658D01*
X78000000Y-63750000D01*
X78000000Y-77368144D01*
X77870298Y-77392549D01*
X77751175Y-77469203D01*
X77671259Y-77586163D01*
X77643144Y-77725000D01*
X77643144Y-78675000D01*
X77667549Y-78804702D01*
X77744203Y-78923825D01*
X77857158Y-79001004D01*
X77751175Y-79069203D01*
X77671259Y-79186163D01*
X77643144Y-79325000D01*
X77643144Y-80275000D01*
X77667549Y-80404702D01*
X77744203Y-80523825D01*
X77861163Y-80603741D01*
X78000000Y-80631856D01*
X78011309Y-80631856D01*
X78023382Y-80692548D01*
X78038060Y-80766342D01*
X78146447Y-80928553D01*
X78800000Y-81582106D01*
X78800000Y-87840000D01*
X78625000Y-87840000D01*
X78525000Y-87940000D01*
X78525000Y-88525000D01*
X78545000Y-88525000D01*
X78545000Y-88575000D01*
X78525000Y-88575000D01*
X78525000Y-88595000D01*
X78475000Y-88595000D01*
X78475000Y-88575000D01*
X77890000Y-88575000D01*
X77790000Y-88675000D01*
X77790000Y-88939565D01*
X77846238Y-89075337D01*
X77833144Y-89140000D01*
X77833144Y-89760000D01*
X77857549Y-89889702D01*
X77934203Y-90008825D01*
X78000000Y-90053783D01*
X78000000Y-90462294D01*
X77849428Y-90524509D01*
X77525646Y-90847727D01*
X77500154Y-90909118D01*
X77475491Y-90849428D01*
X77152273Y-90525646D01*
X77000000Y-90462417D01*
X77000000Y-90053650D01*
X77058825Y-90015797D01*
X77103783Y-89950000D01*
X77110000Y-89950000D01*
X77301342Y-89911940D01*
X77463553Y-89803553D01*
X77603554Y-89663553D01*
X77711941Y-89501341D01*
X77721886Y-89451342D01*
X77750001Y-89309999D01*
X77750001Y-88160435D01*
X77790000Y-88160435D01*
X77790000Y-88425000D01*
X77890000Y-88525000D01*
X78475000Y-88525000D01*
X78475000Y-87940000D01*
X78375000Y-87840000D01*
X78110435Y-87840000D01*
X77963418Y-87900896D01*
X77850896Y-88013418D01*
X77790000Y-88160435D01*
X77750001Y-88160435D01*
X77750001Y-81325001D01*
X77711941Y-81133659D01*
X77636963Y-81021447D01*
X77603555Y-80971448D01*
X77196545Y-80564438D01*
X77248825Y-80530797D01*
X77328741Y-80413837D01*
X77356856Y-80275000D01*
X77356856Y-79325000D01*
X77332451Y-79195298D01*
X77255797Y-79076175D01*
X77142842Y-78998996D01*
X77248825Y-78930797D01*
X77328741Y-78813837D01*
X77356856Y-78675000D01*
X77356856Y-77725000D01*
X77332451Y-77595298D01*
X77255797Y-77476175D01*
X77138837Y-77396259D01*
X77000000Y-77368144D01*
X77000000Y-59457106D01*
X79157106Y-57300001D01*
X85981294Y-57300001D01*
X85928556Y-57352647D01*
X85928556Y-57352647D01*
G37*
X85928556Y-57352647D02*
X85730226Y-57830279D01*
X85729774Y-58347452D01*
X85927271Y-58825429D01*
X86292647Y-59191444D01*
X86698985Y-59360170D01*
X86294571Y-59527271D01*
X85928556Y-59892647D01*
X85730226Y-60370279D01*
X85729774Y-60887452D01*
X85927271Y-61365429D01*
X86031658Y-61469999D01*
X85580001Y-61469999D01*
X85429174Y-61500000D01*
X80250000Y-61500000D01*
X80058658Y-61538060D01*
X80040656Y-61550089D01*
X79896447Y-61646446D01*
X78146447Y-63396447D01*
X78038060Y-63558658D01*
X78000000Y-63750000D01*
X78000000Y-77368144D01*
X77870298Y-77392549D01*
X77751175Y-77469203D01*
X77671259Y-77586163D01*
X77643144Y-77725000D01*
X77643144Y-78675000D01*
X77667549Y-78804702D01*
X77744203Y-78923825D01*
X77857158Y-79001004D01*
X77751175Y-79069203D01*
X77671259Y-79186163D01*
X77643144Y-79325000D01*
X77643144Y-80275000D01*
X77667549Y-80404702D01*
X77744203Y-80523825D01*
X77861163Y-80603741D01*
X78000000Y-80631856D01*
X78011309Y-80631856D01*
X78023382Y-80692548D01*
X78038060Y-80766342D01*
X78146447Y-80928553D01*
X78800000Y-81582106D01*
X78800000Y-87840000D01*
X78625000Y-87840000D01*
X78525000Y-87940000D01*
X78525000Y-88525000D01*
X78545000Y-88525000D01*
X78545000Y-88575000D01*
X78525000Y-88575000D01*
X78525000Y-88595000D01*
X78475000Y-88595000D01*
X78475000Y-88575000D01*
X77890000Y-88575000D01*
X77790000Y-88675000D01*
X77790000Y-88939565D01*
X77846238Y-89075337D01*
X77833144Y-89140000D01*
X77833144Y-89760000D01*
X77857549Y-89889702D01*
X77934203Y-90008825D01*
X78000000Y-90053783D01*
X78000000Y-90462294D01*
X77849428Y-90524509D01*
X77525646Y-90847727D01*
X77500154Y-90909118D01*
X77475491Y-90849428D01*
X77152273Y-90525646D01*
X77000000Y-90462417D01*
X77000000Y-90053650D01*
X77058825Y-90015797D01*
X77103783Y-89950000D01*
X77110000Y-89950000D01*
X77301342Y-89911940D01*
X77463553Y-89803553D01*
X77603554Y-89663553D01*
X77711941Y-89501341D01*
X77721886Y-89451342D01*
X77750001Y-89309999D01*
X77750001Y-88160435D01*
X77790000Y-88160435D01*
X77790000Y-88425000D01*
X77890000Y-88525000D01*
X78475000Y-88525000D01*
X78475000Y-87940000D01*
X78375000Y-87840000D01*
X78110435Y-87840000D01*
X77963418Y-87900896D01*
X77850896Y-88013418D01*
X77790000Y-88160435D01*
X77750001Y-88160435D01*
X77750001Y-81325001D01*
X77711941Y-81133659D01*
X77636963Y-81021447D01*
X77603555Y-80971448D01*
X77196545Y-80564438D01*
X77248825Y-80530797D01*
X77328741Y-80413837D01*
X77356856Y-80275000D01*
X77356856Y-79325000D01*
X77332451Y-79195298D01*
X77255797Y-79076175D01*
X77142842Y-78998996D01*
X77248825Y-78930797D01*
X77328741Y-78813837D01*
X77356856Y-78675000D01*
X77356856Y-77725000D01*
X77332451Y-77595298D01*
X77255797Y-77476175D01*
X77138837Y-77396259D01*
X77000000Y-77368144D01*
X77000000Y-59457106D01*
X79157106Y-57300001D01*
X85981294Y-57300001D01*
X85928556Y-57352647D01*
G36*
X85927271Y-56285429D02*
X85941818Y-56300001D01*
X78949999Y-56300001D01*
X78758657Y-56338061D01*
X78596446Y-56446447D01*
X76146447Y-58896447D01*
X76038060Y-59058658D01*
X76000000Y-59250000D01*
X76000000Y-77368144D01*
X75870298Y-77392549D01*
X75751175Y-77469203D01*
X75671259Y-77586163D01*
X75643144Y-77725000D01*
X75643144Y-78675000D01*
X75667549Y-78804702D01*
X75744203Y-78923825D01*
X75857158Y-79001004D01*
X75751175Y-79069203D01*
X75671259Y-79186163D01*
X75643144Y-79325000D01*
X75643144Y-80275000D01*
X75667549Y-80404702D01*
X75744203Y-80523825D01*
X75861163Y-80603741D01*
X76000000Y-80631856D01*
X76011309Y-80631856D01*
X76023382Y-80692548D01*
X76038060Y-80766342D01*
X76146447Y-80928553D01*
X76750001Y-81532108D01*
X76750001Y-87840000D01*
X76625000Y-87840000D01*
X76525000Y-87940000D01*
X76525000Y-88525000D01*
X76545000Y-88525000D01*
X76545000Y-88575000D01*
X76525000Y-88575000D01*
X76525000Y-88595000D01*
X76475000Y-88595000D01*
X76475000Y-88575000D01*
X75890000Y-88575000D01*
X75790000Y-88675000D01*
X75790000Y-88939565D01*
X75846238Y-89075337D01*
X75833144Y-89140000D01*
X75833144Y-89760000D01*
X75857549Y-89889702D01*
X75934203Y-90008825D01*
X76000000Y-90053783D01*
X76000000Y-90462294D01*
X75849428Y-90524509D01*
X75600000Y-90773503D01*
X75600000Y-88160435D01*
X75790000Y-88160435D01*
X75790000Y-88425000D01*
X75890000Y-88525000D01*
X76475000Y-88525000D01*
X76475000Y-87940000D01*
X76375000Y-87840000D01*
X76110435Y-87840000D01*
X75963418Y-87900896D01*
X75850896Y-88013418D01*
X75790000Y-88160435D01*
X75600000Y-88160435D01*
X75600000Y-57041422D01*
X76541422Y-56100000D01*
X85850653Y-56100000D01*
X85927271Y-56285429D01*
X85927271Y-56285429D01*
G37*
X85927271Y-56285429D02*
X85941818Y-56300001D01*
X78949999Y-56300001D01*
X78758657Y-56338061D01*
X78596446Y-56446447D01*
X76146447Y-58896447D01*
X76038060Y-59058658D01*
X76000000Y-59250000D01*
X76000000Y-77368144D01*
X75870298Y-77392549D01*
X75751175Y-77469203D01*
X75671259Y-77586163D01*
X75643144Y-77725000D01*
X75643144Y-78675000D01*
X75667549Y-78804702D01*
X75744203Y-78923825D01*
X75857158Y-79001004D01*
X75751175Y-79069203D01*
X75671259Y-79186163D01*
X75643144Y-79325000D01*
X75643144Y-80275000D01*
X75667549Y-80404702D01*
X75744203Y-80523825D01*
X75861163Y-80603741D01*
X76000000Y-80631856D01*
X76011309Y-80631856D01*
X76023382Y-80692548D01*
X76038060Y-80766342D01*
X76146447Y-80928553D01*
X76750001Y-81532108D01*
X76750001Y-87840000D01*
X76625000Y-87840000D01*
X76525000Y-87940000D01*
X76525000Y-88525000D01*
X76545000Y-88525000D01*
X76545000Y-88575000D01*
X76525000Y-88575000D01*
X76525000Y-88595000D01*
X76475000Y-88595000D01*
X76475000Y-88575000D01*
X75890000Y-88575000D01*
X75790000Y-88675000D01*
X75790000Y-88939565D01*
X75846238Y-89075337D01*
X75833144Y-89140000D01*
X75833144Y-89760000D01*
X75857549Y-89889702D01*
X75934203Y-90008825D01*
X76000000Y-90053783D01*
X76000000Y-90462294D01*
X75849428Y-90524509D01*
X75600000Y-90773503D01*
X75600000Y-88160435D01*
X75790000Y-88160435D01*
X75790000Y-88425000D01*
X75890000Y-88525000D01*
X76475000Y-88525000D01*
X76475000Y-87940000D01*
X76375000Y-87840000D01*
X76110435Y-87840000D01*
X75963418Y-87900896D01*
X75850896Y-88013418D01*
X75790000Y-88160435D01*
X75600000Y-88160435D01*
X75600000Y-57041422D01*
X76541422Y-56100000D01*
X85850653Y-56100000D01*
X85927271Y-56285429D01*
G36*
X85730226Y-62910279D02*
X85729774Y-63427452D01*
X85925028Y-63900000D01*
X81250000Y-63900000D01*
X81211094Y-63907879D01*
X81179289Y-63929289D01*
X80429289Y-64679289D01*
X80407350Y-64712371D01*
X80400000Y-64750000D01*
X80400000Y-65019259D01*
X80399990Y-65019309D01*
X80399990Y-71213614D01*
X79181802Y-72431802D01*
X79084254Y-72577792D01*
X79050000Y-72750000D01*
X79050000Y-75750000D01*
X79084254Y-75922208D01*
X79169642Y-76050000D01*
X79181802Y-76068198D01*
X79481802Y-76368198D01*
X79627792Y-76465746D01*
X79643144Y-76468800D01*
X79643144Y-76525000D01*
X79667549Y-76654702D01*
X79744203Y-76773825D01*
X79861163Y-76853741D01*
X80000000Y-76881856D01*
X80000000Y-77368144D01*
X79870298Y-77392549D01*
X79751175Y-77469203D01*
X79671259Y-77586163D01*
X79643144Y-77725000D01*
X79643144Y-78675000D01*
X79667549Y-78804702D01*
X79744203Y-78923825D01*
X79857158Y-79001004D01*
X79751175Y-79069203D01*
X79671259Y-79186163D01*
X79643144Y-79325000D01*
X79643144Y-80275000D01*
X79667549Y-80404702D01*
X79744203Y-80523825D01*
X79861163Y-80603741D01*
X80000000Y-80631856D01*
X80011309Y-80631856D01*
X80023382Y-80692548D01*
X80038060Y-80766342D01*
X80146447Y-80928553D01*
X80400000Y-81182106D01*
X80400000Y-87865000D01*
X80375000Y-87840000D01*
X80110435Y-87840000D01*
X79963418Y-87900896D01*
X79850896Y-88013418D01*
X79800000Y-88136293D01*
X79800000Y-81375000D01*
X79761940Y-81183658D01*
X79653553Y-81021447D01*
X79196545Y-80564439D01*
X79248825Y-80530797D01*
X79328741Y-80413837D01*
X79356856Y-80275000D01*
X79356856Y-79325000D01*
X79332451Y-79195298D01*
X79255797Y-79076175D01*
X79142842Y-78998996D01*
X79248825Y-78930797D01*
X79328741Y-78813837D01*
X79356856Y-78675000D01*
X79356856Y-77725000D01*
X79332451Y-77595298D01*
X79255797Y-77476175D01*
X79138837Y-77396259D01*
X79000000Y-77368144D01*
X79000000Y-63957106D01*
X80457107Y-62500000D01*
X85900589Y-62500000D01*
X85730226Y-62910279D01*
X85730226Y-62910279D01*
G37*
X85730226Y-62910279D02*
X85729774Y-63427452D01*
X85925028Y-63900000D01*
X81250000Y-63900000D01*
X81211094Y-63907879D01*
X81179289Y-63929289D01*
X80429289Y-64679289D01*
X80407350Y-64712371D01*
X80400000Y-64750000D01*
X80400000Y-65019259D01*
X80399990Y-65019309D01*
X80399990Y-71213614D01*
X79181802Y-72431802D01*
X79084254Y-72577792D01*
X79050000Y-72750000D01*
X79050000Y-75750000D01*
X79084254Y-75922208D01*
X79169642Y-76050000D01*
X79181802Y-76068198D01*
X79481802Y-76368198D01*
X79627792Y-76465746D01*
X79643144Y-76468800D01*
X79643144Y-76525000D01*
X79667549Y-76654702D01*
X79744203Y-76773825D01*
X79861163Y-76853741D01*
X80000000Y-76881856D01*
X80000000Y-77368144D01*
X79870298Y-77392549D01*
X79751175Y-77469203D01*
X79671259Y-77586163D01*
X79643144Y-77725000D01*
X79643144Y-78675000D01*
X79667549Y-78804702D01*
X79744203Y-78923825D01*
X79857158Y-79001004D01*
X79751175Y-79069203D01*
X79671259Y-79186163D01*
X79643144Y-79325000D01*
X79643144Y-80275000D01*
X79667549Y-80404702D01*
X79744203Y-80523825D01*
X79861163Y-80603741D01*
X80000000Y-80631856D01*
X80011309Y-80631856D01*
X80023382Y-80692548D01*
X80038060Y-80766342D01*
X80146447Y-80928553D01*
X80400000Y-81182106D01*
X80400000Y-87865000D01*
X80375000Y-87840000D01*
X80110435Y-87840000D01*
X79963418Y-87900896D01*
X79850896Y-88013418D01*
X79800000Y-88136293D01*
X79800000Y-81375000D01*
X79761940Y-81183658D01*
X79653553Y-81021447D01*
X79196545Y-80564439D01*
X79248825Y-80530797D01*
X79328741Y-80413837D01*
X79356856Y-80275000D01*
X79356856Y-79325000D01*
X79332451Y-79195298D01*
X79255797Y-79076175D01*
X79142842Y-78998996D01*
X79248825Y-78930797D01*
X79328741Y-78813837D01*
X79356856Y-78675000D01*
X79356856Y-77725000D01*
X79332451Y-77595298D01*
X79255797Y-77476175D01*
X79138837Y-77396259D01*
X79000000Y-77368144D01*
X79000000Y-63957106D01*
X80457107Y-62500000D01*
X85900589Y-62500000D01*
X85730226Y-62910279D01*
M02*
