M48
;DRILL file {KiCad 0.201512291232+6408~40~ubuntu14.04.1-stable} date Sun 27 Mar 2016 17:17:14 BST
;FORMAT={-:-/ absolute / inch / decimal}
FMAT,2
INCH,TZ
T1C0.016
T2C0.031
T3C0.039
%
G90
G05
M72
T1
X2.2244Y-3.1201
X2.2343Y-2.7165
X2.2638Y-2.0669
X2.2736Y-3.061
X2.2736Y-3.1791
X2.2835Y-2.6575
X2.2835Y-2.7756
X2.6575Y-2.8543
X2.6575Y-3.4449
X2.6969Y-2.5394
X2.7362Y-2.8543
X2.7362Y-3.4449
X2.7756Y-2.5984
X2.815Y-2.5
X2.815Y-3.4449
X2.8937Y-3.4449
X3.1693Y-3.4449
X3.248Y-3.4449
X3.3465Y-2.6378
X3.3465Y-2.874
T2
X2.3031Y-3.6024
X2.3819Y-3.6024
X2.4803Y-2.2622
X2.4803Y-2.3622
X2.4803Y-2.4622
X2.5787Y-3.6024
X2.6575Y-3.6024
X2.7362Y-3.6024
X2.815Y-3.6024
X2.8937Y-3.6024
X3.0906Y-3.6024
X3.1693Y-3.6024
X3.248Y-3.6024
T3
X2.0264Y-1.987
X2.0264Y-2.087
X2.0264Y-2.187
X2.0264Y-2.287
X2.0264Y-2.387
X2.0264Y-2.487
X2.0264Y-2.587
X2.0264Y-2.687
X2.0264Y-2.787
X2.0264Y-2.887
X2.0264Y-2.987
X2.0264Y-3.087
X2.0264Y-3.187
X2.0264Y-3.287
X2.0264Y-3.387
X2.0264Y-3.487
X2.0264Y-3.587
X2.0264Y-3.687
X2.0264Y-3.787
X2.0264Y-3.887
X2.1264Y-1.987
X2.1264Y-2.087
X2.1264Y-2.187
X2.1264Y-2.287
X2.1264Y-2.387
X2.1264Y-2.487
X2.1264Y-2.587
X2.1264Y-2.687
X2.1264Y-2.787
X2.1264Y-2.887
X2.1264Y-2.987
X2.1264Y-3.087
X2.1264Y-3.187
X2.1264Y-3.287
X2.1264Y-3.387
X2.1264Y-3.487
X2.1264Y-3.587
X2.1264Y-3.687
X2.1264Y-3.787
X2.1264Y-3.887
X3.4264Y-1.987
X3.4264Y-2.087
X3.4264Y-2.187
X3.4264Y-2.287
X3.4264Y-2.387
X3.4264Y-2.487
X3.4264Y-2.587
X3.4264Y-2.687
X3.4264Y-2.787
X3.4264Y-2.887
X3.4264Y-2.987
X3.4264Y-3.087
X3.4264Y-3.187
X3.4264Y-3.287
X3.4264Y-3.387
X3.4264Y-3.487
X3.4264Y-3.587
X3.4264Y-3.687
X3.4264Y-3.787
X3.4264Y-3.887
X3.5264Y-1.987
X3.5264Y-2.087
X3.5264Y-2.187
X3.5264Y-2.287
X3.5264Y-2.387
X3.5264Y-2.487
X3.5264Y-2.587
X3.5264Y-2.687
X3.5264Y-2.787
X3.5264Y-2.887
X3.5264Y-2.987
X3.5264Y-3.087
X3.5264Y-3.187
X3.5264Y-3.287
X3.5264Y-3.387
X3.5264Y-3.487
X3.5264Y-3.587
X3.5264Y-3.687
X3.5264Y-3.787
X3.5264Y-3.887
T0
M30
