G04 #@! TF.FileFunction,Soldermask,Top*
%FSLAX46Y46*%
G04 Gerber Fmt 4.6, Leading zero omitted, Abs format (unit mm)*
G04 Created by KiCad (PCBNEW 0.201512291232+6408~40~ubuntu14.04.1-stable) date Sun 27 Mar 2016 17:17:12 BST*
%MOMM*%
G01*
G04 APERTURE LIST*
%ADD10C,0.100000*%
%ADD11R,0.950000X1.000000*%
%ADD12R,1.150000X1.800000*%
%ADD13R,1.000000X0.950000*%
%ADD14R,0.620000X0.620000*%
%ADD15C,1.500000*%
%ADD16C,3.200000*%
%ADD17C,1.900000*%
%ADD18C,1.200000*%
%ADD19C,1.600000*%
%ADD20R,4.200000X1.400000*%
G04 APERTURE END LIST*
D10*
D11*
X60300000Y-52500000D03*
X58700000Y-52500000D03*
D12*
X60750000Y-79250000D03*
X57750000Y-79250000D03*
X61000000Y-69000000D03*
X58000000Y-69000000D03*
D13*
X67500000Y-75300000D03*
X67500000Y-73700000D03*
X69500000Y-75300000D03*
X69500000Y-73700000D03*
D14*
X59950000Y-89750000D03*
X59050000Y-89750000D03*
X67500000Y-89450000D03*
X67500000Y-88550000D03*
X69500000Y-89450000D03*
X69500000Y-88550000D03*
X71500000Y-89450000D03*
X71500000Y-88550000D03*
X73500000Y-89450000D03*
X73500000Y-88550000D03*
X80500000Y-89450000D03*
X80500000Y-88550000D03*
X82500000Y-89450000D03*
X82500000Y-88550000D03*
D11*
X83800000Y-67000000D03*
X82200000Y-67000000D03*
X83800000Y-73000000D03*
X82200000Y-73000000D03*
D15*
X63000000Y-62540000D03*
X63000000Y-60000000D03*
X63000000Y-57460000D03*
D16*
X54000000Y-43500000D03*
D17*
X51470000Y-98730000D03*
X54010000Y-98730000D03*
X54010000Y-96190000D03*
X51470000Y-96190000D03*
X51470000Y-93650000D03*
X54010000Y-93650000D03*
X54010000Y-91110000D03*
X51470000Y-91110000D03*
X51470000Y-88570000D03*
X54010000Y-88570000D03*
X51470000Y-86030000D03*
X51470000Y-83490000D03*
X51470000Y-80950000D03*
X51470000Y-78410000D03*
X51470000Y-75870000D03*
X51470000Y-73330000D03*
X51470000Y-70790000D03*
X51470000Y-68250000D03*
X51470000Y-65710000D03*
X51470000Y-63170000D03*
X51470000Y-60630000D03*
X51470000Y-58090000D03*
X51470000Y-55550000D03*
X51470000Y-53010000D03*
X54010000Y-53010000D03*
X54010000Y-55550000D03*
X54010000Y-58090000D03*
X54010000Y-60630000D03*
X54010000Y-63170000D03*
X54010000Y-65710000D03*
X54010000Y-68250000D03*
X54010000Y-70790000D03*
X54010000Y-73330000D03*
X54010000Y-75870000D03*
X54010000Y-78410000D03*
X54010000Y-80950000D03*
X54010000Y-83490000D03*
X54010000Y-86030000D03*
X51470000Y-50470000D03*
X54010000Y-50470000D03*
X87030000Y-98730000D03*
X89570000Y-98730000D03*
X87030000Y-96190000D03*
X89570000Y-96190000D03*
X89570000Y-93650000D03*
X87030000Y-93650000D03*
X87030000Y-91110000D03*
X89570000Y-91110000D03*
X89570000Y-88570000D03*
X87030000Y-88570000D03*
X87030000Y-86030000D03*
X89570000Y-86030000D03*
X89570000Y-83490000D03*
X87030000Y-83490000D03*
X87030000Y-80950000D03*
X89570000Y-80950000D03*
X89570000Y-78410000D03*
X87030000Y-78410000D03*
X87030000Y-75870000D03*
X89570000Y-75870000D03*
X89570000Y-73330000D03*
X87030000Y-73330000D03*
X87030000Y-70790000D03*
X89570000Y-70790000D03*
X87030000Y-68250000D03*
X89570000Y-68250000D03*
X87030000Y-65710000D03*
X89570000Y-65710000D03*
X87030000Y-63170000D03*
X89570000Y-63170000D03*
X87030000Y-60630000D03*
X89570000Y-60630000D03*
X87030000Y-58090000D03*
X89570000Y-58090000D03*
X87030000Y-55550000D03*
X89570000Y-55550000D03*
X87030000Y-53010000D03*
X89570000Y-53010000D03*
X87030000Y-50470000D03*
X89570000Y-50470000D03*
D18*
X57000000Y-93600000D03*
X62000000Y-93600000D03*
D19*
X58500000Y-91500000D03*
X60500000Y-91500000D03*
D18*
X64000000Y-93600000D03*
X75000000Y-93600000D03*
D19*
X65500000Y-91500000D03*
X67500000Y-91500000D03*
X69500000Y-91500000D03*
X71500000Y-91500000D03*
X73500000Y-91500000D03*
D18*
X77000000Y-93600000D03*
X84000000Y-93600000D03*
D19*
X78500000Y-91500000D03*
X80500000Y-91500000D03*
X82500000Y-91500000D03*
D20*
X59500000Y-76100000D03*
X59500000Y-72400000D03*
D13*
X73500000Y-79800000D03*
X73500000Y-78200000D03*
X71500000Y-79800000D03*
X71500000Y-78200000D03*
X69500000Y-79800000D03*
X69500000Y-78200000D03*
X67500000Y-79800000D03*
X67500000Y-78200000D03*
X82500000Y-79800000D03*
X82500000Y-78200000D03*
X80500000Y-79800000D03*
X80500000Y-78200000D03*
D11*
X83800000Y-69000000D03*
X82200000Y-69000000D03*
X83800000Y-71000000D03*
X82200000Y-71000000D03*
M02*
