G04 #@! TF.FileFunction,Legend,Top*
%FSLAX46Y46*%
G04 Gerber Fmt 4.6, Leading zero omitted, Abs format (unit mm)*
G04 Created by KiCad (PCBNEW 0.201512291232+6408~40~ubuntu14.04.1-stable) date Sun 27 Mar 2016 21:12:59 BST*
%MOMM*%
G01*
G04 APERTURE LIST*
%ADD10C,0.100000*%
%ADD11C,0.200000*%
%ADD12C,0.400000*%
%ADD13C,0.300000*%
%ADD14C,0.150000*%
%ADD15R,0.950000X1.000000*%
%ADD16R,1.150000X1.800000*%
%ADD17R,1.000000X0.950000*%
%ADD18R,0.620000X0.620000*%
%ADD19C,1.500000*%
%ADD20C,1.900000*%
%ADD21C,1.200000*%
%ADD22C,1.600000*%
%ADD23R,4.200000X1.400000*%
%ADD24R,1.100000X0.600000*%
G04 APERTURE END LIST*
D10*
D11*
X66247619Y-54151905D02*
X66309524Y-54090000D01*
X66433333Y-54028095D01*
X66742857Y-54028095D01*
X66866667Y-54090000D01*
X66928571Y-54151905D01*
X66990476Y-54275714D01*
X66990476Y-54399524D01*
X66928571Y-54585238D01*
X66185714Y-55328095D01*
X66990476Y-55328095D01*
X67795238Y-54028095D02*
X67919047Y-54028095D01*
X68042857Y-54090000D01*
X68104762Y-54151905D01*
X68166666Y-54275714D01*
X68228571Y-54523333D01*
X68228571Y-54832857D01*
X68166666Y-55080476D01*
X68104762Y-55204286D01*
X68042857Y-55266190D01*
X67919047Y-55328095D01*
X67795238Y-55328095D01*
X67671428Y-55266190D01*
X67609524Y-55204286D01*
X67547619Y-55080476D01*
X67485714Y-54832857D01*
X67485714Y-54523333D01*
X67547619Y-54275714D01*
X67609524Y-54151905D01*
X67671428Y-54090000D01*
X67795238Y-54028095D01*
X69466666Y-55328095D02*
X68723809Y-55328095D01*
X69095238Y-55328095D02*
X69095238Y-54028095D01*
X68971428Y-54213810D01*
X68847619Y-54337619D01*
X68723809Y-54399524D01*
X70580952Y-54028095D02*
X70333333Y-54028095D01*
X70209523Y-54090000D01*
X70147618Y-54151905D01*
X70023809Y-54337619D01*
X69961904Y-54585238D01*
X69961904Y-55080476D01*
X70023809Y-55204286D01*
X70085714Y-55266190D01*
X70209523Y-55328095D01*
X70457142Y-55328095D01*
X70580952Y-55266190D01*
X70642856Y-55204286D01*
X70704761Y-55080476D01*
X70704761Y-54770952D01*
X70642856Y-54647143D01*
X70580952Y-54585238D01*
X70457142Y-54523333D01*
X70209523Y-54523333D01*
X70085714Y-54585238D01*
X70023809Y-54647143D01*
X69961904Y-54770952D01*
X71261904Y-54832857D02*
X72252380Y-54832857D01*
X73119047Y-54028095D02*
X73242856Y-54028095D01*
X73366666Y-54090000D01*
X73428571Y-54151905D01*
X73490475Y-54275714D01*
X73552380Y-54523333D01*
X73552380Y-54832857D01*
X73490475Y-55080476D01*
X73428571Y-55204286D01*
X73366666Y-55266190D01*
X73242856Y-55328095D01*
X73119047Y-55328095D01*
X72995237Y-55266190D01*
X72933333Y-55204286D01*
X72871428Y-55080476D01*
X72809523Y-54832857D01*
X72809523Y-54523333D01*
X72871428Y-54275714D01*
X72933333Y-54151905D01*
X72995237Y-54090000D01*
X73119047Y-54028095D01*
X73985713Y-54028095D02*
X74790475Y-54028095D01*
X74357142Y-54523333D01*
X74542856Y-54523333D01*
X74666666Y-54585238D01*
X74728570Y-54647143D01*
X74790475Y-54770952D01*
X74790475Y-55080476D01*
X74728570Y-55204286D01*
X74666666Y-55266190D01*
X74542856Y-55328095D01*
X74171428Y-55328095D01*
X74047618Y-55266190D01*
X73985713Y-55204286D01*
X75347618Y-54832857D02*
X76338094Y-54832857D01*
X76895237Y-54151905D02*
X76957142Y-54090000D01*
X77080951Y-54028095D01*
X77390475Y-54028095D01*
X77514285Y-54090000D01*
X77576189Y-54151905D01*
X77638094Y-54275714D01*
X77638094Y-54399524D01*
X77576189Y-54585238D01*
X76833332Y-55328095D01*
X77638094Y-55328095D01*
X78071427Y-54028095D02*
X78938094Y-54028095D01*
X78380951Y-55328095D01*
X66247619Y-56976667D02*
X66866667Y-56976667D01*
X66123810Y-57348095D02*
X66557143Y-56048095D01*
X66990476Y-57348095D01*
X67423810Y-57224286D02*
X67485715Y-57286190D01*
X67423810Y-57348095D01*
X67361905Y-57286190D01*
X67423810Y-57224286D01*
X67423810Y-57348095D01*
X69714286Y-56110000D02*
X69590477Y-56048095D01*
X69404762Y-56048095D01*
X69219048Y-56110000D01*
X69095239Y-56233810D01*
X69033334Y-56357619D01*
X68971429Y-56605238D01*
X68971429Y-56790952D01*
X69033334Y-57038571D01*
X69095239Y-57162381D01*
X69219048Y-57286190D01*
X69404762Y-57348095D01*
X69528572Y-57348095D01*
X69714286Y-57286190D01*
X69776191Y-57224286D01*
X69776191Y-56790952D01*
X69528572Y-56790952D01*
X71076191Y-57348095D02*
X70642858Y-56729048D01*
X70333334Y-57348095D02*
X70333334Y-56048095D01*
X70828572Y-56048095D01*
X70952381Y-56110000D01*
X71014286Y-56171905D01*
X71076191Y-56295714D01*
X71076191Y-56481429D01*
X71014286Y-56605238D01*
X70952381Y-56667143D01*
X70828572Y-56729048D01*
X70333334Y-56729048D01*
X71633334Y-56667143D02*
X72066667Y-56667143D01*
X72252381Y-57348095D02*
X71633334Y-57348095D01*
X71633334Y-56048095D01*
X72252381Y-56048095D01*
X72809524Y-57348095D02*
X72809524Y-56048095D01*
X74109524Y-56110000D02*
X73985715Y-56048095D01*
X73800000Y-56048095D01*
X73614286Y-56110000D01*
X73490477Y-56233810D01*
X73428572Y-56357619D01*
X73366667Y-56605238D01*
X73366667Y-56790952D01*
X73428572Y-57038571D01*
X73490477Y-57162381D01*
X73614286Y-57286190D01*
X73800000Y-57348095D01*
X73923810Y-57348095D01*
X74109524Y-57286190D01*
X74171429Y-57224286D01*
X74171429Y-56790952D01*
X73923810Y-56790952D01*
X76709524Y-57348095D02*
X76709524Y-56481429D01*
X76709524Y-56729048D02*
X76771429Y-56605238D01*
X76833333Y-56543333D01*
X76957143Y-56481429D01*
X77080952Y-56481429D01*
X78195238Y-57348095D02*
X77452381Y-57348095D01*
X77823810Y-57348095D02*
X77823810Y-56048095D01*
X77700000Y-56233810D01*
X77576191Y-56357619D01*
X77452381Y-56419524D01*
D12*
X67130953Y-52154762D02*
X66583333Y-51202381D01*
X65988095Y-52154762D02*
X66238095Y-50154762D01*
X67000000Y-50154762D01*
X67178571Y-50250000D01*
X67261905Y-50345238D01*
X67333334Y-50535714D01*
X67297619Y-50821429D01*
X67178572Y-51011905D01*
X67071428Y-51107143D01*
X66869047Y-51202381D01*
X66107142Y-51202381D01*
X67988095Y-52154762D02*
X68238095Y-50154762D01*
X70226191Y-50250000D02*
X70047619Y-50154762D01*
X69761905Y-50154762D01*
X69464286Y-50250000D01*
X69250001Y-50440476D01*
X69130952Y-50630952D01*
X68988095Y-51011905D01*
X68952381Y-51297619D01*
X69000000Y-51678571D01*
X69071429Y-51869048D01*
X69238096Y-52059524D01*
X69511905Y-52154762D01*
X69702381Y-52154762D01*
X70000001Y-52059524D01*
X70107143Y-51964286D01*
X70190477Y-51297619D01*
X69809524Y-51297619D01*
X72107143Y-51964286D02*
X72000001Y-52059524D01*
X71702381Y-52154762D01*
X71511905Y-52154762D01*
X71238096Y-52059524D01*
X71071429Y-51869048D01*
X71000000Y-51678571D01*
X70952381Y-51297619D01*
X70988095Y-51011905D01*
X71130952Y-50630952D01*
X71250001Y-50440476D01*
X71464286Y-50250000D01*
X71761905Y-50154762D01*
X71952381Y-50154762D01*
X72226191Y-50250000D01*
X72309524Y-50345238D01*
X72940476Y-52154762D02*
X73190476Y-50154762D01*
X73071428Y-51107143D02*
X74214286Y-51107143D01*
X74083334Y-52154762D02*
X74333334Y-50154762D01*
X75035714Y-52154762D02*
X75285714Y-50154762D01*
X75988095Y-52154762D02*
X76238095Y-50154762D01*
X77000000Y-50154762D01*
X77178571Y-50250000D01*
X77261905Y-50345238D01*
X77333334Y-50535714D01*
X77297619Y-50821429D01*
X77178572Y-51011905D01*
X77071428Y-51107143D01*
X76869047Y-51202381D01*
X76107142Y-51202381D01*
D13*
X70142858Y-69928571D02*
X71000001Y-69928571D01*
X70571430Y-71428571D02*
X70571430Y-69928571D01*
X71357144Y-69928571D02*
X72357144Y-71428571D01*
X72357144Y-69928571D02*
X71357144Y-71428571D01*
X74000000Y-71000000D02*
X74714286Y-71000000D01*
X73857143Y-71428571D02*
X74357143Y-69928571D01*
X74857143Y-71428571D01*
X76214286Y-71285714D02*
X76142857Y-71357143D01*
X75928571Y-71428571D01*
X75785714Y-71428571D01*
X75571429Y-71357143D01*
X75428571Y-71214286D01*
X75357143Y-71071429D01*
X75285714Y-70785714D01*
X75285714Y-70571429D01*
X75357143Y-70285714D01*
X75428571Y-70142857D01*
X75571429Y-70000000D01*
X75785714Y-69928571D01*
X75928571Y-69928571D01*
X76142857Y-70000000D01*
X76214286Y-70071429D01*
X76642857Y-69928571D02*
X77500000Y-69928571D01*
X77071429Y-71428571D02*
X77071429Y-69928571D01*
X78000000Y-71428571D02*
X78000000Y-69928571D01*
X78500000Y-69928571D02*
X79000000Y-71428571D01*
X79500000Y-69928571D01*
X80000000Y-70642857D02*
X80500000Y-70642857D01*
X80714286Y-71428571D02*
X80000000Y-71428571D01*
X80000000Y-69928571D01*
X80714286Y-69928571D01*
X70857144Y-67428571D02*
X70357144Y-66714286D01*
X70000001Y-67428571D02*
X70000001Y-65928571D01*
X70571429Y-65928571D01*
X70714287Y-66000000D01*
X70785715Y-66071429D01*
X70857144Y-66214286D01*
X70857144Y-66428571D01*
X70785715Y-66571429D01*
X70714287Y-66642857D01*
X70571429Y-66714286D01*
X70000001Y-66714286D01*
X71357144Y-65928571D02*
X72357144Y-67428571D01*
X72357144Y-65928571D02*
X71357144Y-67428571D01*
X74000000Y-67000000D02*
X74714286Y-67000000D01*
X73857143Y-67428571D02*
X74357143Y-65928571D01*
X74857143Y-67428571D01*
X76214286Y-67285714D02*
X76142857Y-67357143D01*
X75928571Y-67428571D01*
X75785714Y-67428571D01*
X75571429Y-67357143D01*
X75428571Y-67214286D01*
X75357143Y-67071429D01*
X75285714Y-66785714D01*
X75285714Y-66571429D01*
X75357143Y-66285714D01*
X75428571Y-66142857D01*
X75571429Y-66000000D01*
X75785714Y-65928571D01*
X75928571Y-65928571D01*
X76142857Y-66000000D01*
X76214286Y-66071429D01*
X76642857Y-65928571D02*
X77500000Y-65928571D01*
X77071429Y-67428571D02*
X77071429Y-65928571D01*
X78000000Y-67428571D02*
X78000000Y-65928571D01*
X78500000Y-65928571D02*
X79000000Y-67428571D01*
X79500000Y-65928571D01*
X80000000Y-66642857D02*
X80500000Y-66642857D01*
X80714286Y-67428571D02*
X80000000Y-67428571D01*
X80000000Y-65928571D01*
X80714286Y-65928571D01*
D11*
X57960000Y-86335714D02*
X57902857Y-86450000D01*
X57902857Y-86621429D01*
X57960000Y-86792857D01*
X58074286Y-86907143D01*
X58188571Y-86964286D01*
X58417143Y-87021429D01*
X58588571Y-87021429D01*
X58817143Y-86964286D01*
X58931429Y-86907143D01*
X59045714Y-86792857D01*
X59102857Y-86621429D01*
X59102857Y-86507143D01*
X59045714Y-86335714D01*
X58988571Y-86278571D01*
X58588571Y-86278571D01*
X58588571Y-86507143D01*
X59102857Y-85764286D02*
X57902857Y-85764286D01*
X59102857Y-85078571D01*
X57902857Y-85078571D01*
X59102857Y-84507143D02*
X57902857Y-84507143D01*
X57902857Y-84221428D01*
X57960000Y-84050000D01*
X58074286Y-83935714D01*
X58188571Y-83878571D01*
X58417143Y-83821428D01*
X58588571Y-83821428D01*
X58817143Y-83878571D01*
X58931429Y-83935714D01*
X59045714Y-84050000D01*
X59102857Y-84221428D01*
X59102857Y-84507143D01*
X60982857Y-86335714D02*
X60982857Y-87021429D01*
X60982857Y-86678571D02*
X59782857Y-86678571D01*
X59954286Y-86792857D01*
X60068571Y-86907143D01*
X60125714Y-87021429D01*
X59897143Y-85878572D02*
X59840000Y-85821429D01*
X59782857Y-85707143D01*
X59782857Y-85421429D01*
X59840000Y-85307143D01*
X59897143Y-85250000D01*
X60011429Y-85192857D01*
X60125714Y-85192857D01*
X60297143Y-85250000D01*
X60982857Y-85935714D01*
X60982857Y-85192857D01*
X59782857Y-84850000D02*
X60982857Y-84450000D01*
X59782857Y-84050000D01*
X65020000Y-86335714D02*
X64962857Y-86450000D01*
X64962857Y-86621429D01*
X65020000Y-86792857D01*
X65134286Y-86907143D01*
X65248571Y-86964286D01*
X65477143Y-87021429D01*
X65648571Y-87021429D01*
X65877143Y-86964286D01*
X65991429Y-86907143D01*
X66105714Y-86792857D01*
X66162857Y-86621429D01*
X66162857Y-86507143D01*
X66105714Y-86335714D01*
X66048571Y-86278571D01*
X65648571Y-86278571D01*
X65648571Y-86507143D01*
X66162857Y-85764286D02*
X64962857Y-85764286D01*
X66162857Y-85078571D01*
X64962857Y-85078571D01*
X66162857Y-84507143D02*
X64962857Y-84507143D01*
X64962857Y-84221428D01*
X65020000Y-84050000D01*
X65134286Y-83935714D01*
X65248571Y-83878571D01*
X65477143Y-83821428D01*
X65648571Y-83821428D01*
X65877143Y-83878571D01*
X65991429Y-83935714D01*
X66105714Y-84050000D01*
X66162857Y-84221428D01*
X66162857Y-84507143D01*
X68042857Y-86278571D02*
X67471429Y-86678571D01*
X68042857Y-86964286D02*
X66842857Y-86964286D01*
X66842857Y-86507143D01*
X66900000Y-86392857D01*
X66957143Y-86335714D01*
X67071429Y-86278571D01*
X67242857Y-86278571D01*
X67357143Y-86335714D01*
X67414286Y-86392857D01*
X67471429Y-86507143D01*
X67471429Y-86964286D01*
X66842857Y-85878571D02*
X68042857Y-85078571D01*
X66842857Y-85078571D02*
X68042857Y-85878571D01*
X68722857Y-87135714D02*
X68722857Y-86450000D01*
X69922857Y-86792857D02*
X68722857Y-86792857D01*
X68722857Y-86164285D02*
X69922857Y-85364285D01*
X68722857Y-85364285D02*
X69922857Y-86164285D01*
D13*
X66035715Y-83035714D02*
X65964286Y-83107143D01*
X65750000Y-83178571D01*
X65607143Y-83178571D01*
X65392858Y-83107143D01*
X65250000Y-82964286D01*
X65178572Y-82821429D01*
X65107143Y-82535714D01*
X65107143Y-82321429D01*
X65178572Y-82035714D01*
X65250000Y-81892857D01*
X65392858Y-81750000D01*
X65607143Y-81678571D01*
X65750000Y-81678571D01*
X65964286Y-81750000D01*
X66035715Y-81821429D01*
X66464286Y-81678571D02*
X67321429Y-81678571D01*
X66892858Y-83178571D02*
X66892858Y-81678571D01*
X68678572Y-83178571D02*
X68178572Y-82464286D01*
X67821429Y-83178571D02*
X67821429Y-81678571D01*
X68392857Y-81678571D01*
X68535715Y-81750000D01*
X68607143Y-81821429D01*
X68678572Y-81964286D01*
X68678572Y-82178571D01*
X68607143Y-82321429D01*
X68535715Y-82392857D01*
X68392857Y-82464286D01*
X67821429Y-82464286D01*
X70035715Y-83178571D02*
X69321429Y-83178571D01*
X69321429Y-81678571D01*
D11*
X74140000Y-86335714D02*
X74082857Y-86450000D01*
X74082857Y-86621429D01*
X74140000Y-86792857D01*
X74254286Y-86907143D01*
X74368571Y-86964286D01*
X74597143Y-87021429D01*
X74768571Y-87021429D01*
X74997143Y-86964286D01*
X75111429Y-86907143D01*
X75225714Y-86792857D01*
X75282857Y-86621429D01*
X75282857Y-86507143D01*
X75225714Y-86335714D01*
X75168571Y-86278571D01*
X74768571Y-86278571D01*
X74768571Y-86507143D01*
X75282857Y-85764286D02*
X74082857Y-85764286D01*
X75282857Y-85078571D01*
X74082857Y-85078571D01*
X75282857Y-84507143D02*
X74082857Y-84507143D01*
X74082857Y-84221428D01*
X74140000Y-84050000D01*
X74254286Y-83935714D01*
X74368571Y-83878571D01*
X74597143Y-83821428D01*
X74768571Y-83821428D01*
X74997143Y-83878571D01*
X75111429Y-83935714D01*
X75225714Y-84050000D01*
X75282857Y-84221428D01*
X75282857Y-84507143D01*
X75962857Y-87135714D02*
X75962857Y-86450000D01*
X77162857Y-86792857D02*
X75962857Y-86792857D01*
X75962857Y-86164285D02*
X77162857Y-85364285D01*
X75962857Y-85364285D02*
X77162857Y-86164285D01*
X76820000Y-84964286D02*
X76820000Y-84392857D01*
X77162857Y-85078571D02*
X75962857Y-84678571D01*
X77162857Y-84278571D01*
X79042857Y-86278571D02*
X78471429Y-86678571D01*
X79042857Y-86964286D02*
X77842857Y-86964286D01*
X77842857Y-86507143D01*
X77900000Y-86392857D01*
X77957143Y-86335714D01*
X78071429Y-86278571D01*
X78242857Y-86278571D01*
X78357143Y-86335714D01*
X78414286Y-86392857D01*
X78471429Y-86507143D01*
X78471429Y-86964286D01*
X77842857Y-85878571D02*
X79042857Y-85078571D01*
X77842857Y-85078571D02*
X79042857Y-85878571D01*
X78700000Y-84678572D02*
X78700000Y-84107143D01*
X79042857Y-84792857D02*
X77842857Y-84392857D01*
X79042857Y-83992857D01*
X80865714Y-87021429D02*
X80922857Y-86850000D01*
X80922857Y-86564286D01*
X80865714Y-86450000D01*
X80808571Y-86392857D01*
X80694286Y-86335714D01*
X80580000Y-86335714D01*
X80465714Y-86392857D01*
X80408571Y-86450000D01*
X80351429Y-86564286D01*
X80294286Y-86792857D01*
X80237143Y-86907143D01*
X80180000Y-86964286D01*
X80065714Y-87021429D01*
X79951429Y-87021429D01*
X79837143Y-86964286D01*
X79780000Y-86907143D01*
X79722857Y-86792857D01*
X79722857Y-86507143D01*
X79780000Y-86335714D01*
X81037143Y-85021429D02*
X80980000Y-85135714D01*
X80865714Y-85250000D01*
X80694286Y-85421429D01*
X80637143Y-85535714D01*
X80637143Y-85650000D01*
X80922857Y-85592857D02*
X80865714Y-85707143D01*
X80751429Y-85821429D01*
X80522857Y-85878572D01*
X80122857Y-85878572D01*
X79894286Y-85821429D01*
X79780000Y-85707143D01*
X79722857Y-85592857D01*
X79722857Y-85364286D01*
X79780000Y-85250000D01*
X79894286Y-85135714D01*
X80122857Y-85078572D01*
X80522857Y-85078572D01*
X80751429Y-85135714D01*
X80865714Y-85250000D01*
X80922857Y-85364286D01*
X80922857Y-85592857D01*
X80922857Y-83992857D02*
X80922857Y-84564286D01*
X79722857Y-84564286D01*
X82802857Y-86964286D02*
X81602857Y-86964286D01*
X81602857Y-86507143D01*
X81660000Y-86392857D01*
X81717143Y-86335714D01*
X81831429Y-86278571D01*
X82002857Y-86278571D01*
X82117143Y-86335714D01*
X82174286Y-86392857D01*
X82231429Y-86507143D01*
X82231429Y-86964286D01*
X81602857Y-85935714D02*
X81602857Y-85250000D01*
X82802857Y-85592857D02*
X81602857Y-85592857D01*
X81602857Y-85021428D02*
X81602857Y-84335714D01*
X82802857Y-84678571D02*
X81602857Y-84678571D01*
D13*
X76250001Y-83178571D02*
X76250001Y-81678571D01*
X76607144Y-81678571D01*
X76821429Y-81750000D01*
X76964287Y-81892857D01*
X77035715Y-82035714D01*
X77107144Y-82321429D01*
X77107144Y-82535714D01*
X77035715Y-82821429D01*
X76964287Y-82964286D01*
X76821429Y-83107143D01*
X76607144Y-83178571D01*
X76250001Y-83178571D01*
X77678572Y-82750000D02*
X78392858Y-82750000D01*
X77535715Y-83178571D02*
X78035715Y-81678571D01*
X78535715Y-83178571D01*
X78821429Y-81678571D02*
X79678572Y-81678571D01*
X79250001Y-83178571D02*
X79250001Y-81678571D01*
X80107143Y-82750000D02*
X80821429Y-82750000D01*
X79964286Y-83178571D02*
X80464286Y-81678571D01*
X80964286Y-83178571D01*
X56035714Y-83178571D02*
X56035714Y-81678571D01*
X56607142Y-81678571D01*
X56750000Y-81750000D01*
X56821428Y-81821429D01*
X56892857Y-81964286D01*
X56892857Y-82178571D01*
X56821428Y-82321429D01*
X56750000Y-82392857D01*
X56607142Y-82464286D01*
X56035714Y-82464286D01*
X57821428Y-81678571D02*
X58107142Y-81678571D01*
X58250000Y-81750000D01*
X58392857Y-81892857D01*
X58464285Y-82178571D01*
X58464285Y-82678571D01*
X58392857Y-82964286D01*
X58250000Y-83107143D01*
X58107142Y-83178571D01*
X57821428Y-83178571D01*
X57678571Y-83107143D01*
X57535714Y-82964286D01*
X57464285Y-82678571D01*
X57464285Y-82178571D01*
X57535714Y-81892857D01*
X57678571Y-81750000D01*
X57821428Y-81678571D01*
X58964286Y-81678571D02*
X59321429Y-83178571D01*
X59607143Y-82107143D01*
X59892857Y-83178571D01*
X60250000Y-81678571D01*
X60821429Y-82392857D02*
X61321429Y-82392857D01*
X61535715Y-83178571D02*
X60821429Y-83178571D01*
X60821429Y-81678571D01*
X61535715Y-81678571D01*
X63035715Y-83178571D02*
X62535715Y-82464286D01*
X62178572Y-83178571D02*
X62178572Y-81678571D01*
X62750000Y-81678571D01*
X62892858Y-81750000D01*
X62964286Y-81821429D01*
X63035715Y-81964286D01*
X63035715Y-82178571D01*
X62964286Y-82321429D01*
X62892858Y-82392857D01*
X62750000Y-82464286D01*
X62178572Y-82464286D01*
D14*
X59625000Y-52825000D02*
X59375000Y-52825000D01*
X59375000Y-52825000D02*
X59375000Y-52175000D01*
X59375000Y-52175000D02*
X59625000Y-52175000D01*
X59625000Y-52175000D02*
X59625000Y-52825000D01*
X59975000Y-79975000D02*
X58525000Y-79975000D01*
X58525000Y-79975000D02*
X58525000Y-78525000D01*
X58525000Y-78525000D02*
X59975000Y-78525000D01*
X59975000Y-78525000D02*
X59975000Y-79975000D01*
X60225000Y-69725000D02*
X58775000Y-69725000D01*
X58775000Y-69725000D02*
X58775000Y-68275000D01*
X58775000Y-68275000D02*
X60225000Y-68275000D01*
X60225000Y-68275000D02*
X60225000Y-69725000D01*
X80175000Y-75375000D02*
X80175000Y-75125000D01*
X80175000Y-75125000D02*
X80825000Y-75125000D01*
X80825000Y-75125000D02*
X80825000Y-75375000D01*
X80825000Y-75375000D02*
X80175000Y-75375000D01*
X82175000Y-75375000D02*
X82175000Y-75125000D01*
X82175000Y-75125000D02*
X82825000Y-75125000D01*
X82825000Y-75125000D02*
X82825000Y-75375000D01*
X82825000Y-75375000D02*
X82175000Y-75375000D01*
X83125000Y-65750000D02*
X82875000Y-66075000D01*
X83125000Y-65750000D02*
X82875000Y-65425000D01*
X82875000Y-66075000D02*
X82875000Y-65425000D01*
X83125000Y-71750000D02*
X82875000Y-72075000D01*
X83125000Y-71750000D02*
X82875000Y-71425000D01*
X82875000Y-72075000D02*
X82875000Y-71425000D01*
X64600200Y-62540000D02*
G75*
G03X64600200Y-62540000I-76200J0D01*
G01*
X64651000Y-62540000D02*
G75*
G03X64651000Y-62540000I-127000J0D01*
G01*
X57500000Y-54250000D02*
X57500000Y-65750000D01*
X64900000Y-54250000D02*
X57500000Y-54250000D01*
X64900000Y-65750000D02*
X64900000Y-54250000D01*
X57500000Y-65750000D02*
X64900000Y-65750000D01*
X64778000Y-62540000D02*
G75*
G03X64778000Y-62540000I-254000J0D01*
G01*
X62500000Y-99700000D02*
X56500000Y-99700000D01*
X56500000Y-99700000D02*
X56500000Y-88000000D01*
X56500000Y-88000000D02*
X57500000Y-88000000D01*
X57500000Y-88000000D02*
X57500000Y-92000000D01*
X62500000Y-99700000D02*
X62500000Y-88000000D01*
X62500000Y-88000000D02*
X61500000Y-88000000D01*
X61500000Y-88000000D02*
X61500000Y-92000000D01*
X84500000Y-99700000D02*
X72500000Y-99700000D01*
X72500000Y-99700000D02*
X72500000Y-88000000D01*
X72500000Y-88000000D02*
X73500000Y-88000000D01*
X73500000Y-88000000D02*
X73500000Y-92000000D01*
X84500000Y-99700000D02*
X84500000Y-88000000D01*
X84500000Y-88000000D02*
X83500000Y-88000000D01*
X83500000Y-88000000D02*
X83500000Y-92000000D01*
X71500000Y-99700000D02*
X63500000Y-99700000D01*
X63500000Y-99700000D02*
X63500000Y-88000000D01*
X63500000Y-88000000D02*
X64500000Y-88000000D01*
X64500000Y-88000000D02*
X64500000Y-92000000D01*
X71500000Y-99700000D02*
X71500000Y-88000000D01*
X71500000Y-88000000D02*
X70500000Y-88000000D01*
X70500000Y-88000000D02*
X70500000Y-92000000D01*
X57075000Y-75200000D02*
X57075000Y-73300000D01*
X57075000Y-73300000D02*
X61925000Y-73300000D01*
X61925000Y-73300000D02*
X61925000Y-75200000D01*
X61925000Y-75200000D02*
X57075000Y-75200000D01*
X82175000Y-79125000D02*
X82175000Y-78875000D01*
X82175000Y-78875000D02*
X82825000Y-78875000D01*
X82825000Y-78875000D02*
X82825000Y-79125000D01*
X82825000Y-79125000D02*
X82175000Y-79125000D01*
X80175000Y-79125000D02*
X80175000Y-78875000D01*
X80175000Y-78875000D02*
X80825000Y-78875000D01*
X80825000Y-78875000D02*
X80825000Y-79125000D01*
X80825000Y-79125000D02*
X80175000Y-79125000D01*
X78175000Y-79125000D02*
X78175000Y-78875000D01*
X78175000Y-78875000D02*
X78825000Y-78875000D01*
X78825000Y-78875000D02*
X78825000Y-79125000D01*
X78825000Y-79125000D02*
X78175000Y-79125000D01*
X76175000Y-79125000D02*
X76175000Y-78875000D01*
X76175000Y-78875000D02*
X76825000Y-78875000D01*
X76825000Y-78875000D02*
X76825000Y-79125000D01*
X76825000Y-79125000D02*
X76175000Y-79125000D01*
X71175000Y-79125000D02*
X71175000Y-78875000D01*
X71175000Y-78875000D02*
X71825000Y-78875000D01*
X71825000Y-78875000D02*
X71825000Y-79125000D01*
X71825000Y-79125000D02*
X71175000Y-79125000D01*
X67175000Y-79125000D02*
X67175000Y-78875000D01*
X67175000Y-78875000D02*
X67825000Y-78875000D01*
X67825000Y-78875000D02*
X67825000Y-79125000D01*
X67825000Y-79125000D02*
X67175000Y-79125000D01*
X83125000Y-68075000D02*
X82875000Y-68075000D01*
X82875000Y-68075000D02*
X82875000Y-67425000D01*
X82875000Y-67425000D02*
X83125000Y-67425000D01*
X83125000Y-67425000D02*
X83125000Y-68075000D01*
X83125000Y-70075000D02*
X82875000Y-70075000D01*
X82875000Y-70075000D02*
X82875000Y-69425000D01*
X82875000Y-69425000D02*
X83125000Y-69425000D01*
X83125000Y-69425000D02*
X83125000Y-70075000D01*
X63825000Y-78875000D02*
X63825000Y-79125000D01*
X63825000Y-79125000D02*
X63175000Y-79125000D01*
X63175000Y-79125000D02*
X63175000Y-78875000D01*
X63175000Y-78875000D02*
X63825000Y-78875000D01*
X69825000Y-78875000D02*
X69825000Y-79125000D01*
X69825000Y-79125000D02*
X69175000Y-79125000D01*
X69175000Y-79125000D02*
X69175000Y-78875000D01*
X69175000Y-78875000D02*
X69825000Y-78875000D01*
X65750000Y-75950000D02*
X65750000Y-75950000D01*
X65750000Y-75950000D02*
X65750000Y-74050000D01*
X65750000Y-74050000D02*
X66250000Y-74050000D01*
X66250000Y-74050000D02*
X66250000Y-75450000D01*
X66250000Y-75450000D02*
X65750000Y-75950000D01*
X70750000Y-75950000D02*
X70750000Y-75950000D01*
X70750000Y-75950000D02*
X70750000Y-74050000D01*
X70750000Y-74050000D02*
X71250000Y-74050000D01*
X71250000Y-74050000D02*
X71250000Y-75450000D01*
X71250000Y-75450000D02*
X70750000Y-75950000D01*
X65175000Y-79125000D02*
X65175000Y-78875000D01*
X65175000Y-78875000D02*
X65825000Y-78875000D01*
X65825000Y-78875000D02*
X65825000Y-79125000D01*
X65825000Y-79125000D02*
X65175000Y-79125000D01*
X73175000Y-79125000D02*
X73175000Y-78875000D01*
X73175000Y-78875000D02*
X73825000Y-78875000D01*
X73825000Y-78875000D02*
X73825000Y-79125000D01*
X73825000Y-79125000D02*
X73175000Y-79125000D01*
%LPC*%
D15*
X60300000Y-52500000D03*
X58700000Y-52500000D03*
D16*
X60750000Y-79250000D03*
X57750000Y-79250000D03*
X61000000Y-69000000D03*
X58000000Y-69000000D03*
D17*
X80500000Y-76050000D03*
X80500000Y-74450000D03*
X82500000Y-76050000D03*
X82500000Y-74450000D03*
D18*
X59950000Y-89750000D03*
X59050000Y-89750000D03*
X76500000Y-89450000D03*
X76500000Y-88550000D03*
X78500000Y-89450000D03*
X78500000Y-88550000D03*
X80500000Y-89450000D03*
X80500000Y-88550000D03*
X82500000Y-89450000D03*
X82500000Y-88550000D03*
X67500000Y-89450000D03*
X67500000Y-88550000D03*
X69500000Y-89450000D03*
X69500000Y-88550000D03*
D15*
X83800000Y-65750000D03*
X82200000Y-65750000D03*
X83800000Y-71750000D03*
X82200000Y-71750000D03*
D19*
X63000000Y-62540000D03*
X63000000Y-60000000D03*
X63000000Y-57460000D03*
D20*
X51470000Y-98730000D03*
X54010000Y-98730000D03*
X54010000Y-96190000D03*
X51470000Y-96190000D03*
X51470000Y-93650000D03*
X54010000Y-93650000D03*
X54010000Y-91110000D03*
X51470000Y-91110000D03*
X51470000Y-88570000D03*
X54010000Y-88570000D03*
X51470000Y-86030000D03*
X51470000Y-83490000D03*
X51470000Y-80950000D03*
X51470000Y-78410000D03*
X51470000Y-75870000D03*
X51470000Y-73330000D03*
X51470000Y-70790000D03*
X51470000Y-68250000D03*
X51470000Y-65710000D03*
X51470000Y-63170000D03*
X51470000Y-60630000D03*
X51470000Y-58090000D03*
X51470000Y-55550000D03*
X51470000Y-53010000D03*
X54010000Y-53010000D03*
X54010000Y-55550000D03*
X54010000Y-58090000D03*
X54010000Y-60630000D03*
X54010000Y-63170000D03*
X54010000Y-65710000D03*
X54010000Y-68250000D03*
X54010000Y-70790000D03*
X54010000Y-73330000D03*
X54010000Y-75870000D03*
X54010000Y-78410000D03*
X54010000Y-80950000D03*
X54010000Y-83490000D03*
X54010000Y-86030000D03*
X51470000Y-50470000D03*
X54010000Y-50470000D03*
X87030000Y-98730000D03*
X89570000Y-98730000D03*
X87030000Y-96190000D03*
X89570000Y-96190000D03*
X89570000Y-93650000D03*
X87030000Y-93650000D03*
X87030000Y-91110000D03*
X89570000Y-91110000D03*
X89570000Y-88570000D03*
X87030000Y-88570000D03*
X87030000Y-86030000D03*
X89570000Y-86030000D03*
X89570000Y-83490000D03*
X87030000Y-83490000D03*
X87030000Y-80950000D03*
X89570000Y-80950000D03*
X89570000Y-78410000D03*
X87030000Y-78410000D03*
X87030000Y-75870000D03*
X89570000Y-75870000D03*
X89570000Y-73330000D03*
X87030000Y-73330000D03*
X87030000Y-70790000D03*
X89570000Y-70790000D03*
X87030000Y-68250000D03*
X89570000Y-68250000D03*
X87030000Y-65710000D03*
X89570000Y-65710000D03*
X87030000Y-63170000D03*
X89570000Y-63170000D03*
X87030000Y-60630000D03*
X89570000Y-60630000D03*
X87030000Y-58090000D03*
X89570000Y-58090000D03*
X87030000Y-55550000D03*
X89570000Y-55550000D03*
X87030000Y-53010000D03*
X89570000Y-53010000D03*
X87030000Y-50470000D03*
X89570000Y-50470000D03*
D21*
X57000000Y-93600000D03*
X62000000Y-93600000D03*
D22*
X58500000Y-91500000D03*
X60500000Y-91500000D03*
D21*
X73000000Y-93600000D03*
X84000000Y-93600000D03*
D22*
X74500000Y-91500000D03*
X76500000Y-91500000D03*
X78500000Y-91500000D03*
X80500000Y-91500000D03*
X82500000Y-91500000D03*
D21*
X64000000Y-93600000D03*
X71000000Y-93600000D03*
D22*
X65500000Y-91500000D03*
X67500000Y-91500000D03*
X69500000Y-91500000D03*
D23*
X59500000Y-76100000D03*
X59500000Y-72400000D03*
D17*
X82500000Y-79800000D03*
X82500000Y-78200000D03*
X80500000Y-79800000D03*
X80500000Y-78200000D03*
X78500000Y-79800000D03*
X78500000Y-78200000D03*
X76500000Y-79800000D03*
X76500000Y-78200000D03*
X71500000Y-79800000D03*
X71500000Y-78200000D03*
X67500000Y-79800000D03*
X67500000Y-78200000D03*
D15*
X83800000Y-67750000D03*
X82200000Y-67750000D03*
X83800000Y-69750000D03*
X82200000Y-69750000D03*
D17*
X63500000Y-78200000D03*
X63500000Y-79800000D03*
X69500000Y-78200000D03*
X69500000Y-79800000D03*
D24*
X67300000Y-75950000D03*
X67300000Y-75000000D03*
X67300000Y-74050000D03*
X64700000Y-74050000D03*
X64700000Y-75950000D03*
X72300000Y-75950000D03*
X72300000Y-75000000D03*
X72300000Y-74050000D03*
X69700000Y-74050000D03*
X69700000Y-75950000D03*
D17*
X65500000Y-79800000D03*
X65500000Y-78200000D03*
X73500000Y-79800000D03*
X73500000Y-78200000D03*
M02*
