G04 #@! TF.FileFunction,Copper,L1,Top,Signal*
%FSLAX46Y46*%
G04 Gerber Fmt 4.6, Leading zero omitted, Abs format (unit mm)*
G04 Created by KiCad (PCBNEW 0.201512291232+6408~40~ubuntu14.04.1-stable) date Sun 27 Mar 2016 17:17:12 BST*
%MOMM*%
G01*
G04 APERTURE LIST*
%ADD10C,0.100000*%
%ADD11R,0.950000X1.000000*%
%ADD12R,1.150000X1.800000*%
%ADD13R,1.000000X0.950000*%
%ADD14R,0.620000X0.620000*%
%ADD15C,1.500000*%
%ADD16C,1.900000*%
%ADD17C,1.600000*%
%ADD18R,4.200000X1.400000*%
%ADD19C,0.800000*%
%ADD20C,1.000000*%
%ADD21C,0.300000*%
%ADD22C,0.500000*%
%ADD23C,0.200000*%
G04 APERTURE END LIST*
D10*
D11*
X60300000Y-52500000D03*
X58700000Y-52500000D03*
D12*
X60750000Y-79250000D03*
X57750000Y-79250000D03*
X61000000Y-69000000D03*
X58000000Y-69000000D03*
D13*
X67500000Y-75300000D03*
X67500000Y-73700000D03*
X69500000Y-75300000D03*
X69500000Y-73700000D03*
D14*
X59950000Y-89750000D03*
X59050000Y-89750000D03*
X67500000Y-89450000D03*
X67500000Y-88550000D03*
X69500000Y-89450000D03*
X69500000Y-88550000D03*
X71500000Y-89450000D03*
X71500000Y-88550000D03*
X73500000Y-89450000D03*
X73500000Y-88550000D03*
X80500000Y-89450000D03*
X80500000Y-88550000D03*
X82500000Y-89450000D03*
X82500000Y-88550000D03*
D11*
X83800000Y-67000000D03*
X82200000Y-67000000D03*
X83800000Y-73000000D03*
X82200000Y-73000000D03*
D15*
X63000000Y-62540000D03*
X63000000Y-60000000D03*
X63000000Y-57460000D03*
D16*
X51470000Y-98730000D03*
X54010000Y-98730000D03*
X54010000Y-96190000D03*
X51470000Y-96190000D03*
X51470000Y-93650000D03*
X54010000Y-93650000D03*
X54010000Y-91110000D03*
X51470000Y-91110000D03*
X51470000Y-88570000D03*
X54010000Y-88570000D03*
X51470000Y-86030000D03*
X51470000Y-83490000D03*
X51470000Y-80950000D03*
X51470000Y-78410000D03*
X51470000Y-75870000D03*
X51470000Y-73330000D03*
X51470000Y-70790000D03*
X51470000Y-68250000D03*
X51470000Y-65710000D03*
X51470000Y-63170000D03*
X51470000Y-60630000D03*
X51470000Y-58090000D03*
X51470000Y-55550000D03*
X51470000Y-53010000D03*
X54010000Y-53010000D03*
X54010000Y-55550000D03*
X54010000Y-58090000D03*
X54010000Y-60630000D03*
X54010000Y-63170000D03*
X54010000Y-65710000D03*
X54010000Y-68250000D03*
X54010000Y-70790000D03*
X54010000Y-73330000D03*
X54010000Y-75870000D03*
X54010000Y-78410000D03*
X54010000Y-80950000D03*
X54010000Y-83490000D03*
X54010000Y-86030000D03*
X51470000Y-50470000D03*
X54010000Y-50470000D03*
X87030000Y-98730000D03*
X89570000Y-98730000D03*
X87030000Y-96190000D03*
X89570000Y-96190000D03*
X89570000Y-93650000D03*
X87030000Y-93650000D03*
X87030000Y-91110000D03*
X89570000Y-91110000D03*
X89570000Y-88570000D03*
X87030000Y-88570000D03*
X87030000Y-86030000D03*
X89570000Y-86030000D03*
X89570000Y-83490000D03*
X87030000Y-83490000D03*
X87030000Y-80950000D03*
X89570000Y-80950000D03*
X89570000Y-78410000D03*
X87030000Y-78410000D03*
X87030000Y-75870000D03*
X89570000Y-75870000D03*
X89570000Y-73330000D03*
X87030000Y-73330000D03*
X87030000Y-70790000D03*
X89570000Y-70790000D03*
X87030000Y-68250000D03*
X89570000Y-68250000D03*
X87030000Y-65710000D03*
X89570000Y-65710000D03*
X87030000Y-63170000D03*
X89570000Y-63170000D03*
X87030000Y-60630000D03*
X89570000Y-60630000D03*
X87030000Y-58090000D03*
X89570000Y-58090000D03*
X87030000Y-55550000D03*
X89570000Y-55550000D03*
X87030000Y-53010000D03*
X89570000Y-53010000D03*
X87030000Y-50470000D03*
X89570000Y-50470000D03*
D17*
X58500000Y-91500000D03*
X60500000Y-91500000D03*
X65500000Y-91500000D03*
X67500000Y-91500000D03*
X69500000Y-91500000D03*
X71500000Y-91500000D03*
X73500000Y-91500000D03*
X78500000Y-91500000D03*
X80500000Y-91500000D03*
X82500000Y-91500000D03*
D18*
X59500000Y-76100000D03*
X59500000Y-72400000D03*
D13*
X73500000Y-79800000D03*
X73500000Y-78200000D03*
X71500000Y-79800000D03*
X71500000Y-78200000D03*
X69500000Y-79800000D03*
X69500000Y-78200000D03*
X67500000Y-79800000D03*
X67500000Y-78200000D03*
X82500000Y-79800000D03*
X82500000Y-78200000D03*
X80500000Y-79800000D03*
X80500000Y-78200000D03*
D11*
X83800000Y-69000000D03*
X82200000Y-69000000D03*
X83800000Y-71000000D03*
X82200000Y-71000000D03*
D19*
X85000000Y-67000000D03*
X85000000Y-73000000D03*
X82500000Y-87500000D03*
X80500000Y-87500000D03*
X69500000Y-72500000D03*
X67500000Y-72500000D03*
X73500000Y-87500000D03*
X71500000Y-87500000D03*
X69500000Y-87500000D03*
X67500000Y-87500000D03*
X57500000Y-52500000D03*
X58000000Y-67500000D03*
X56750000Y-69000000D03*
X58000000Y-70500000D03*
X57750000Y-77750000D03*
X57750000Y-80750000D03*
X56500000Y-79250000D03*
X68500000Y-64500000D03*
X70500000Y-66000000D03*
X71500000Y-63500000D03*
D20*
X54010000Y-50470000D02*
X59770000Y-50470000D01*
X59770000Y-50470000D02*
X60300000Y-51000000D01*
X60300000Y-51000000D02*
X60300000Y-52500000D01*
X60300000Y-52500000D02*
X60300000Y-54760000D01*
X60300000Y-54760000D02*
X63000000Y-57460000D01*
D21*
X83800000Y-67000000D02*
X85000000Y-67000000D01*
X83800000Y-73000000D02*
X85000000Y-73000000D01*
X82500000Y-88550000D02*
X82500000Y-87500000D01*
X80500000Y-88550000D02*
X80500000Y-87500000D01*
X69500000Y-73700000D02*
X69500000Y-72500000D01*
X67500000Y-73700000D02*
X67500000Y-72500000D01*
X73500000Y-88550000D02*
X73500000Y-87500000D01*
X71500000Y-88550000D02*
X71500000Y-87500000D01*
X69500000Y-88550000D02*
X69500000Y-87500000D01*
X67500000Y-88550000D02*
X67500000Y-87500000D01*
D22*
X58700000Y-52500000D02*
X57500000Y-52500000D01*
X58000000Y-69000000D02*
X58000000Y-67500000D01*
X58000000Y-69000000D02*
X56750000Y-69000000D01*
X58000000Y-69000000D02*
X58000000Y-70500000D01*
X57750000Y-79250000D02*
X57750000Y-77750000D01*
X57750000Y-79250000D02*
X57750000Y-80750000D01*
X57750000Y-79250000D02*
X56500000Y-79250000D01*
X59050000Y-89750000D02*
X59050000Y-90950000D01*
X59050000Y-90950000D02*
X58500000Y-91500000D01*
X59950000Y-89750000D02*
X59950000Y-90950000D01*
X59950000Y-90950000D02*
X60500000Y-91500000D01*
D20*
X60500000Y-91500000D02*
X60500000Y-89500000D01*
X60500000Y-89500000D02*
X60500000Y-77000000D01*
D22*
X59950000Y-89750000D02*
X60250000Y-89750000D01*
X60250000Y-89750000D02*
X60500000Y-89500000D01*
X60750000Y-79250000D02*
X60750000Y-77350000D01*
X60750000Y-77350000D02*
X59500000Y-76100000D01*
X60500000Y-77000000D02*
X60400000Y-77000000D01*
X60400000Y-77000000D02*
X59500000Y-76100000D01*
D20*
X61000000Y-69000000D02*
X61000000Y-64540000D01*
X61000000Y-64540000D02*
X63000000Y-62540000D01*
D21*
X59500000Y-72400000D02*
X60350000Y-72400000D01*
X60350000Y-72400000D02*
X61000000Y-71750000D01*
D20*
X61000000Y-69000000D02*
X61000000Y-71750000D01*
D21*
X68500000Y-64750000D02*
X68500000Y-64500000D01*
X68300000Y-75300000D02*
X68500000Y-75100000D01*
X67500000Y-75300000D02*
X68300000Y-75300000D01*
X68500000Y-66889998D02*
X68500000Y-64750000D01*
X68500000Y-75100000D02*
X68500000Y-66889998D01*
X67500000Y-78200000D02*
X67500000Y-75300000D01*
X69500000Y-75300000D02*
X69525000Y-75300000D01*
X69525000Y-75300000D02*
X70500000Y-74325000D01*
X70500000Y-74325000D02*
X70500000Y-74305002D01*
X70500000Y-74305002D02*
X70500000Y-66000000D01*
X69500000Y-78200000D02*
X69500000Y-75300000D01*
X67500000Y-89450000D02*
X68110000Y-89450000D01*
X68110000Y-89450000D02*
X68250001Y-89309999D01*
X68250001Y-89309999D02*
X68250001Y-81325001D01*
X67500000Y-80575000D02*
X67500000Y-79800000D01*
X68250001Y-81325001D02*
X67500000Y-80575000D01*
X67500000Y-91500000D02*
X67500000Y-89450000D01*
X69500000Y-89450000D02*
X70110000Y-89450000D01*
X70300000Y-81375000D02*
X69500000Y-80575000D01*
X69500000Y-80575000D02*
X69500000Y-79800000D01*
X70110000Y-89450000D02*
X70300000Y-89260000D01*
X70300000Y-89260000D02*
X70300000Y-81375000D01*
X69500000Y-91500000D02*
X69500000Y-89450000D01*
X71500000Y-89450000D02*
X72110000Y-89450000D01*
X72110000Y-89450000D02*
X72300000Y-89260000D01*
X72300000Y-89260000D02*
X72300000Y-81375000D01*
X72300000Y-81375000D02*
X71500000Y-80575000D01*
X71500000Y-80575000D02*
X71500000Y-79800000D01*
X71500000Y-91500000D02*
X71500000Y-89450000D01*
X73500000Y-89450000D02*
X74110000Y-89450000D01*
X74110000Y-89450000D02*
X74250001Y-89309999D01*
X74250001Y-89309999D02*
X74250001Y-81325001D01*
X74250001Y-81325001D02*
X73500000Y-80575000D01*
X73500000Y-80575000D02*
X73500000Y-79800000D01*
X73500000Y-91500000D02*
X73500000Y-89450000D01*
X80500000Y-89450000D02*
X81110000Y-89450000D01*
X81110000Y-89450000D02*
X81250001Y-89309999D01*
X81250001Y-89309999D02*
X81250001Y-81325001D01*
X81250001Y-81325001D02*
X80500000Y-80575000D01*
X80500000Y-80575000D02*
X80500000Y-79800000D01*
X80500000Y-91500000D02*
X80500000Y-89450000D01*
X82500000Y-89450000D02*
X83110000Y-89450000D01*
X83110000Y-89450000D02*
X83300000Y-89260000D01*
X83300000Y-89260000D02*
X83300000Y-81375000D01*
X83300000Y-81375000D02*
X82500000Y-80575000D01*
X82500000Y-80575000D02*
X82500000Y-79800000D01*
X82500000Y-91500000D02*
X82500000Y-89450000D01*
X82200000Y-67000000D02*
X82200000Y-69000000D01*
X82200000Y-71000000D02*
X82200000Y-73000000D01*
D23*
X83800000Y-69000000D02*
X86280000Y-69000000D01*
X86280000Y-69000000D02*
X87030000Y-68250000D01*
X83800000Y-71000000D02*
X84969998Y-71000000D01*
X88280001Y-69539999D02*
X88620001Y-69199999D01*
X84969998Y-71000000D02*
X86429999Y-69539999D01*
X86429999Y-69539999D02*
X88280001Y-69539999D01*
X88620001Y-69199999D02*
X89570000Y-68250000D01*
D21*
X71500000Y-78200000D02*
X71500000Y-63500000D01*
X82500000Y-78200000D02*
X82500000Y-77425000D01*
X81374999Y-76299999D02*
X81374999Y-61205001D01*
X82500000Y-77425000D02*
X81374999Y-76299999D01*
X81374999Y-61205001D02*
X86080001Y-56499999D01*
X86080001Y-56499999D02*
X87030000Y-55550000D01*
X80500000Y-78200000D02*
X80500000Y-59540000D01*
X80500000Y-59540000D02*
X87030000Y-53010000D01*
D23*
X85750000Y-51750000D02*
X87250000Y-51750000D01*
X87250000Y-51750000D02*
X87259999Y-51759999D01*
X87259999Y-51759999D02*
X88319999Y-51759999D01*
X88319999Y-51759999D02*
X88620001Y-52060001D01*
X88620001Y-52060001D02*
X89570000Y-53010000D01*
D21*
X83825998Y-51750000D02*
X85750000Y-51750000D01*
X73500000Y-78200000D02*
X73500000Y-62075998D01*
X73500000Y-62075998D02*
X83825998Y-51750000D01*
M02*
