M48
;DRILL file {KiCad 0.201601071449+6428~40~ubuntu14.04.1-stable} date Tue 29 Mar 2016 01:59:56 BST
;FORMAT={-:-/ absolute / inch / decimal}
FMAT,2
INCH,TZ
T1C0.016
T2C0.031
T3C0.039
%
G90
G05
M72
T1
X2.2244Y-3.1201
X2.2343Y-2.7165
X2.2638Y-2.0669
X2.2736Y-3.061
X2.2736Y-3.1791
X2.2835Y-2.6575
X2.2835Y-2.7756
X2.5Y-3.189
X2.6575Y-2.874
X2.6575Y-3.4449
X2.6772Y-3.189
X2.7362Y-3.4449
X2.7874Y-2.4488
X2.7874Y-2.5039
X2.7874Y-2.5748
X2.7874Y-2.6378
X2.7874Y-2.7165
X2.7874Y-2.7953
X2.8425Y-2.3937
X2.8543Y-2.874
X2.874Y-2.5748
X2.874Y-2.6378
X2.874Y-2.7165
X2.874Y-2.7953
X2.8976Y-2.3386
X2.9134Y-3.2283
X2.9331Y-3.2874
X2.9331Y-3.3661
X2.9331Y-3.4449
X2.9331Y-3.5236
X2.9449Y-2.5039
X2.9449Y-2.6378
X2.9449Y-2.7165
X2.9449Y-2.7953
X2.9449Y-2.874
X2.9449Y-2.9528
X2.9449Y-3.0315
X2.9528Y-2.2835
X2.9921Y-2.5591
X3.Y-2.4488
X3.0079Y-2.2283
X3.0079Y-2.9528
X3.0079Y-3.0315
X3.0118Y-3.2874
X3.0118Y-3.3661
X3.0118Y-3.4449
X3.0157Y-2.6378
X3.0157Y-2.7165
X3.0157Y-2.7953
X3.0157Y-2.874
X3.0315Y-3.189
X3.0472Y-2.189
X3.0472Y-2.5039
X3.0551Y-2.3937
X3.0709Y-3.2283
X3.0787Y-2.7953
X3.0906Y-3.2874
X3.0906Y-3.3661
X3.0906Y-3.4449
X3.0945Y-2.5591
X3.1102Y-2.4409
X3.1102Y-2.6378
X3.1102Y-2.7165
X3.1181Y-2.189
X3.1181Y-2.3307
X3.1201Y-2.874
X3.1496Y-2.5039
X3.1654Y-2.3858
X3.1693Y-3.4449
X3.1732Y-2.2756
X3.189Y-2.4803
X3.2087Y-3.189
X3.2283Y-2.2205
X3.2283Y-2.3228
X3.248Y-3.4449
X3.2677Y-2.4803
X3.2756Y-2.2047
X3.2756Y-2.3858
X3.2776Y-2.2736
X3.3465Y-2.2047
X3.3465Y-2.2657
X3.3465Y-2.3228
X3.3465Y-2.3858
X3.3465Y-2.4803
T2
X2.3031Y-3.6024
X2.3819Y-3.6024
X2.4803Y-2.2622
X2.4803Y-2.3622
X2.4803Y-2.4622
X2.5787Y-3.6024
X2.6575Y-3.6024
X2.7362Y-3.6024
X2.9331Y-3.6024
X3.0118Y-3.6024
X3.0906Y-3.6024
X3.1693Y-3.6024
X3.248Y-3.6024
T3
X2.0264Y-1.987
X2.0264Y-2.087
X2.0264Y-2.187
X2.0264Y-2.287
X2.0264Y-2.387
X2.0264Y-2.487
X2.0264Y-2.587
X2.0264Y-2.687
X2.0264Y-2.787
X2.0264Y-2.887
X2.0264Y-2.987
X2.0264Y-3.087
X2.0264Y-3.187
X2.0264Y-3.287
X2.0264Y-3.387
X2.0264Y-3.487
X2.0264Y-3.587
X2.0264Y-3.687
X2.0264Y-3.787
X2.0264Y-3.887
X2.1264Y-1.987
X2.1264Y-2.087
X2.1264Y-2.187
X2.1264Y-2.287
X2.1264Y-2.387
X2.1264Y-2.487
X2.1264Y-2.587
X2.1264Y-2.687
X2.1264Y-2.787
X2.1264Y-2.887
X2.1264Y-2.987
X2.1264Y-3.087
X2.1264Y-3.187
X2.1264Y-3.287
X2.1264Y-3.387
X2.1264Y-3.487
X2.1264Y-3.587
X2.1264Y-3.687
X2.1264Y-3.787
X2.1264Y-3.887
X3.4264Y-1.987
X3.4264Y-2.087
X3.4264Y-2.187
X3.4264Y-2.287
X3.4264Y-2.387
X3.4264Y-2.487
X3.4264Y-2.587
X3.4264Y-2.687
X3.4264Y-2.787
X3.4264Y-2.887
X3.4264Y-2.987
X3.4264Y-3.087
X3.4264Y-3.187
X3.4264Y-3.287
X3.4264Y-3.387
X3.4264Y-3.487
X3.4264Y-3.587
X3.4264Y-3.687
X3.4264Y-3.787
X3.4264Y-3.887
X3.5264Y-1.987
X3.5264Y-2.087
X3.5264Y-2.187
X3.5264Y-2.287
X3.5264Y-2.387
X3.5264Y-2.487
X3.5264Y-2.587
X3.5264Y-2.687
X3.5264Y-2.787
X3.5264Y-2.887
X3.5264Y-2.987
X3.5264Y-3.087
X3.5264Y-3.187
X3.5264Y-3.287
X3.5264Y-3.387
X3.5264Y-3.487
X3.5264Y-3.587
X3.5264Y-3.687
X3.5264Y-3.787
X3.5264Y-3.887
T0
M30
