G04 #@! TF.FileFunction,Legend,Top*
%FSLAX46Y46*%
G04 Gerber Fmt 4.6, Leading zero omitted, Abs format (unit mm)*
G04 Created by KiCad (PCBNEW 0.201512291232+6408~40~ubuntu14.04.1-stable) date Sun 27 Mar 2016 17:17:12 BST*
%MOMM*%
G01*
G04 APERTURE LIST*
%ADD10C,0.100000*%
%ADD11C,0.200000*%
%ADD12C,0.400000*%
%ADD13C,0.300000*%
%ADD14C,0.150000*%
%ADD15R,0.950000X1.000000*%
%ADD16R,1.150000X1.800000*%
%ADD17R,1.000000X0.950000*%
%ADD18R,0.620000X0.620000*%
%ADD19C,1.500000*%
%ADD20C,3.200000*%
%ADD21C,1.900000*%
%ADD22C,1.200000*%
%ADD23C,1.600000*%
%ADD24R,4.200000X1.400000*%
G04 APERTURE END LIST*
D10*
D11*
X59747619Y-45901905D02*
X59809524Y-45840000D01*
X59933333Y-45778095D01*
X60242857Y-45778095D01*
X60366667Y-45840000D01*
X60428571Y-45901905D01*
X60490476Y-46025714D01*
X60490476Y-46149524D01*
X60428571Y-46335238D01*
X59685714Y-47078095D01*
X60490476Y-47078095D01*
X61295238Y-45778095D02*
X61419047Y-45778095D01*
X61542857Y-45840000D01*
X61604762Y-45901905D01*
X61666666Y-46025714D01*
X61728571Y-46273333D01*
X61728571Y-46582857D01*
X61666666Y-46830476D01*
X61604762Y-46954286D01*
X61542857Y-47016190D01*
X61419047Y-47078095D01*
X61295238Y-47078095D01*
X61171428Y-47016190D01*
X61109524Y-46954286D01*
X61047619Y-46830476D01*
X60985714Y-46582857D01*
X60985714Y-46273333D01*
X61047619Y-46025714D01*
X61109524Y-45901905D01*
X61171428Y-45840000D01*
X61295238Y-45778095D01*
X62966666Y-47078095D02*
X62223809Y-47078095D01*
X62595238Y-47078095D02*
X62595238Y-45778095D01*
X62471428Y-45963810D01*
X62347619Y-46087619D01*
X62223809Y-46149524D01*
X64080952Y-45778095D02*
X63833333Y-45778095D01*
X63709523Y-45840000D01*
X63647618Y-45901905D01*
X63523809Y-46087619D01*
X63461904Y-46335238D01*
X63461904Y-46830476D01*
X63523809Y-46954286D01*
X63585714Y-47016190D01*
X63709523Y-47078095D01*
X63957142Y-47078095D01*
X64080952Y-47016190D01*
X64142856Y-46954286D01*
X64204761Y-46830476D01*
X64204761Y-46520952D01*
X64142856Y-46397143D01*
X64080952Y-46335238D01*
X63957142Y-46273333D01*
X63709523Y-46273333D01*
X63585714Y-46335238D01*
X63523809Y-46397143D01*
X63461904Y-46520952D01*
X64761904Y-46582857D02*
X65752380Y-46582857D01*
X66619047Y-45778095D02*
X66742856Y-45778095D01*
X66866666Y-45840000D01*
X66928571Y-45901905D01*
X66990475Y-46025714D01*
X67052380Y-46273333D01*
X67052380Y-46582857D01*
X66990475Y-46830476D01*
X66928571Y-46954286D01*
X66866666Y-47016190D01*
X66742856Y-47078095D01*
X66619047Y-47078095D01*
X66495237Y-47016190D01*
X66433333Y-46954286D01*
X66371428Y-46830476D01*
X66309523Y-46582857D01*
X66309523Y-46273333D01*
X66371428Y-46025714D01*
X66433333Y-45901905D01*
X66495237Y-45840000D01*
X66619047Y-45778095D01*
X67485713Y-45778095D02*
X68290475Y-45778095D01*
X67857142Y-46273333D01*
X68042856Y-46273333D01*
X68166666Y-46335238D01*
X68228570Y-46397143D01*
X68290475Y-46520952D01*
X68290475Y-46830476D01*
X68228570Y-46954286D01*
X68166666Y-47016190D01*
X68042856Y-47078095D01*
X67671428Y-47078095D01*
X67547618Y-47016190D01*
X67485713Y-46954286D01*
X68847618Y-46582857D02*
X69838094Y-46582857D01*
X70395237Y-45901905D02*
X70457142Y-45840000D01*
X70580951Y-45778095D01*
X70890475Y-45778095D01*
X71014285Y-45840000D01*
X71076189Y-45901905D01*
X71138094Y-46025714D01*
X71138094Y-46149524D01*
X71076189Y-46335238D01*
X70333332Y-47078095D01*
X71138094Y-47078095D01*
X71571427Y-45778095D02*
X72438094Y-45778095D01*
X71880951Y-47078095D01*
X59747619Y-48726667D02*
X60366667Y-48726667D01*
X59623810Y-49098095D02*
X60057143Y-47798095D01*
X60490476Y-49098095D01*
X60923810Y-48974286D02*
X60985715Y-49036190D01*
X60923810Y-49098095D01*
X60861905Y-49036190D01*
X60923810Y-48974286D01*
X60923810Y-49098095D01*
X63214286Y-47860000D02*
X63090477Y-47798095D01*
X62904762Y-47798095D01*
X62719048Y-47860000D01*
X62595239Y-47983810D01*
X62533334Y-48107619D01*
X62471429Y-48355238D01*
X62471429Y-48540952D01*
X62533334Y-48788571D01*
X62595239Y-48912381D01*
X62719048Y-49036190D01*
X62904762Y-49098095D01*
X63028572Y-49098095D01*
X63214286Y-49036190D01*
X63276191Y-48974286D01*
X63276191Y-48540952D01*
X63028572Y-48540952D01*
X64576191Y-49098095D02*
X64142858Y-48479048D01*
X63833334Y-49098095D02*
X63833334Y-47798095D01*
X64328572Y-47798095D01*
X64452381Y-47860000D01*
X64514286Y-47921905D01*
X64576191Y-48045714D01*
X64576191Y-48231429D01*
X64514286Y-48355238D01*
X64452381Y-48417143D01*
X64328572Y-48479048D01*
X63833334Y-48479048D01*
X65133334Y-48417143D02*
X65566667Y-48417143D01*
X65752381Y-49098095D02*
X65133334Y-49098095D01*
X65133334Y-47798095D01*
X65752381Y-47798095D01*
X66309524Y-49098095D02*
X66309524Y-47798095D01*
X67609524Y-47860000D02*
X67485715Y-47798095D01*
X67300000Y-47798095D01*
X67114286Y-47860000D01*
X66990477Y-47983810D01*
X66928572Y-48107619D01*
X66866667Y-48355238D01*
X66866667Y-48540952D01*
X66928572Y-48788571D01*
X66990477Y-48912381D01*
X67114286Y-49036190D01*
X67300000Y-49098095D01*
X67423810Y-49098095D01*
X67609524Y-49036190D01*
X67671429Y-48974286D01*
X67671429Y-48540952D01*
X67423810Y-48540952D01*
X70209524Y-49098095D02*
X70209524Y-48231429D01*
X70209524Y-48479048D02*
X70271429Y-48355238D01*
X70333333Y-48293333D01*
X70457143Y-48231429D01*
X70580952Y-48231429D01*
X71695238Y-49098095D02*
X70952381Y-49098095D01*
X71323810Y-49098095D02*
X71323810Y-47798095D01*
X71200000Y-47983810D01*
X71076191Y-48107619D01*
X70952381Y-48169524D01*
D12*
X60630953Y-43904762D02*
X60083333Y-42952381D01*
X59488095Y-43904762D02*
X59738095Y-41904762D01*
X60500000Y-41904762D01*
X60678571Y-42000000D01*
X60761905Y-42095238D01*
X60833334Y-42285714D01*
X60797619Y-42571429D01*
X60678572Y-42761905D01*
X60571428Y-42857143D01*
X60369047Y-42952381D01*
X59607142Y-42952381D01*
X61488095Y-43904762D02*
X61738095Y-41904762D01*
X63726191Y-42000000D02*
X63547619Y-41904762D01*
X63261905Y-41904762D01*
X62964286Y-42000000D01*
X62750001Y-42190476D01*
X62630952Y-42380952D01*
X62488095Y-42761905D01*
X62452381Y-43047619D01*
X62500000Y-43428571D01*
X62571429Y-43619048D01*
X62738096Y-43809524D01*
X63011905Y-43904762D01*
X63202381Y-43904762D01*
X63500001Y-43809524D01*
X63607143Y-43714286D01*
X63690477Y-43047619D01*
X63309524Y-43047619D01*
X65607143Y-43714286D02*
X65500001Y-43809524D01*
X65202381Y-43904762D01*
X65011905Y-43904762D01*
X64738096Y-43809524D01*
X64571429Y-43619048D01*
X64500000Y-43428571D01*
X64452381Y-43047619D01*
X64488095Y-42761905D01*
X64630952Y-42380952D01*
X64750001Y-42190476D01*
X64964286Y-42000000D01*
X65261905Y-41904762D01*
X65452381Y-41904762D01*
X65726191Y-42000000D01*
X65809524Y-42095238D01*
X66440476Y-43904762D02*
X66690476Y-41904762D01*
X66571428Y-42857143D02*
X67714286Y-42857143D01*
X67583334Y-43904762D02*
X67833334Y-41904762D01*
X68535714Y-43904762D02*
X68785714Y-41904762D01*
X69488095Y-43904762D02*
X69738095Y-41904762D01*
X70500000Y-41904762D01*
X70678571Y-42000000D01*
X70761905Y-42095238D01*
X70833334Y-42285714D01*
X70797619Y-42571429D01*
X70678572Y-42761905D01*
X70571428Y-42857143D01*
X70369047Y-42952381D01*
X69607142Y-42952381D01*
D13*
X70142858Y-71178571D02*
X71000001Y-71178571D01*
X70571430Y-72678571D02*
X70571430Y-71178571D01*
X71357144Y-71178571D02*
X72357144Y-72678571D01*
X72357144Y-71178571D02*
X71357144Y-72678571D01*
X74000000Y-72250000D02*
X74714286Y-72250000D01*
X73857143Y-72678571D02*
X74357143Y-71178571D01*
X74857143Y-72678571D01*
X76214286Y-72535714D02*
X76142857Y-72607143D01*
X75928571Y-72678571D01*
X75785714Y-72678571D01*
X75571429Y-72607143D01*
X75428571Y-72464286D01*
X75357143Y-72321429D01*
X75285714Y-72035714D01*
X75285714Y-71821429D01*
X75357143Y-71535714D01*
X75428571Y-71392857D01*
X75571429Y-71250000D01*
X75785714Y-71178571D01*
X75928571Y-71178571D01*
X76142857Y-71250000D01*
X76214286Y-71321429D01*
X76642857Y-71178571D02*
X77500000Y-71178571D01*
X77071429Y-72678571D02*
X77071429Y-71178571D01*
X78000000Y-72678571D02*
X78000000Y-71178571D01*
X78500000Y-71178571D02*
X79000000Y-72678571D01*
X79500000Y-71178571D01*
X80000000Y-71892857D02*
X80500000Y-71892857D01*
X80714286Y-72678571D02*
X80000000Y-72678571D01*
X80000000Y-71178571D01*
X80714286Y-71178571D01*
X70857144Y-68678571D02*
X70357144Y-67964286D01*
X70000001Y-68678571D02*
X70000001Y-67178571D01*
X70571429Y-67178571D01*
X70714287Y-67250000D01*
X70785715Y-67321429D01*
X70857144Y-67464286D01*
X70857144Y-67678571D01*
X70785715Y-67821429D01*
X70714287Y-67892857D01*
X70571429Y-67964286D01*
X70000001Y-67964286D01*
X71357144Y-67178571D02*
X72357144Y-68678571D01*
X72357144Y-67178571D02*
X71357144Y-68678571D01*
X74000000Y-68250000D02*
X74714286Y-68250000D01*
X73857143Y-68678571D02*
X74357143Y-67178571D01*
X74857143Y-68678571D01*
X76214286Y-68535714D02*
X76142857Y-68607143D01*
X75928571Y-68678571D01*
X75785714Y-68678571D01*
X75571429Y-68607143D01*
X75428571Y-68464286D01*
X75357143Y-68321429D01*
X75285714Y-68035714D01*
X75285714Y-67821429D01*
X75357143Y-67535714D01*
X75428571Y-67392857D01*
X75571429Y-67250000D01*
X75785714Y-67178571D01*
X75928571Y-67178571D01*
X76142857Y-67250000D01*
X76214286Y-67321429D01*
X76642857Y-67178571D02*
X77500000Y-67178571D01*
X77071429Y-68678571D02*
X77071429Y-67178571D01*
X78000000Y-68678571D02*
X78000000Y-67178571D01*
X78500000Y-67178571D02*
X79000000Y-68678571D01*
X79500000Y-67178571D01*
X80000000Y-67892857D02*
X80500000Y-67892857D01*
X80714286Y-68678571D02*
X80000000Y-68678571D01*
X80000000Y-67178571D01*
X80714286Y-67178571D01*
D11*
X57960000Y-86335714D02*
X57902857Y-86450000D01*
X57902857Y-86621429D01*
X57960000Y-86792857D01*
X58074286Y-86907143D01*
X58188571Y-86964286D01*
X58417143Y-87021429D01*
X58588571Y-87021429D01*
X58817143Y-86964286D01*
X58931429Y-86907143D01*
X59045714Y-86792857D01*
X59102857Y-86621429D01*
X59102857Y-86507143D01*
X59045714Y-86335714D01*
X58988571Y-86278571D01*
X58588571Y-86278571D01*
X58588571Y-86507143D01*
X59102857Y-85764286D02*
X57902857Y-85764286D01*
X59102857Y-85078571D01*
X57902857Y-85078571D01*
X59102857Y-84507143D02*
X57902857Y-84507143D01*
X57902857Y-84221428D01*
X57960000Y-84050000D01*
X58074286Y-83935714D01*
X58188571Y-83878571D01*
X58417143Y-83821428D01*
X58588571Y-83821428D01*
X58817143Y-83878571D01*
X58931429Y-83935714D01*
X59045714Y-84050000D01*
X59102857Y-84221428D01*
X59102857Y-84507143D01*
X60982857Y-86335714D02*
X60982857Y-87021429D01*
X60982857Y-86678571D02*
X59782857Y-86678571D01*
X59954286Y-86792857D01*
X60068571Y-86907143D01*
X60125714Y-87021429D01*
X59897143Y-85878572D02*
X59840000Y-85821429D01*
X59782857Y-85707143D01*
X59782857Y-85421429D01*
X59840000Y-85307143D01*
X59897143Y-85250000D01*
X60011429Y-85192857D01*
X60125714Y-85192857D01*
X60297143Y-85250000D01*
X60982857Y-85935714D01*
X60982857Y-85192857D01*
X59782857Y-84850000D02*
X60982857Y-84450000D01*
X59782857Y-84050000D01*
X78020000Y-86335714D02*
X77962857Y-86450000D01*
X77962857Y-86621429D01*
X78020000Y-86792857D01*
X78134286Y-86907143D01*
X78248571Y-86964286D01*
X78477143Y-87021429D01*
X78648571Y-87021429D01*
X78877143Y-86964286D01*
X78991429Y-86907143D01*
X79105714Y-86792857D01*
X79162857Y-86621429D01*
X79162857Y-86507143D01*
X79105714Y-86335714D01*
X79048571Y-86278571D01*
X78648571Y-86278571D01*
X78648571Y-86507143D01*
X79162857Y-85764286D02*
X77962857Y-85764286D01*
X79162857Y-85078571D01*
X77962857Y-85078571D01*
X79162857Y-84507143D02*
X77962857Y-84507143D01*
X77962857Y-84221428D01*
X78020000Y-84050000D01*
X78134286Y-83935714D01*
X78248571Y-83878571D01*
X78477143Y-83821428D01*
X78648571Y-83821428D01*
X78877143Y-83878571D01*
X78991429Y-83935714D01*
X79105714Y-84050000D01*
X79162857Y-84221428D01*
X79162857Y-84507143D01*
X81042857Y-86278571D02*
X80471429Y-86678571D01*
X81042857Y-86964286D02*
X79842857Y-86964286D01*
X79842857Y-86507143D01*
X79900000Y-86392857D01*
X79957143Y-86335714D01*
X80071429Y-86278571D01*
X80242857Y-86278571D01*
X80357143Y-86335714D01*
X80414286Y-86392857D01*
X80471429Y-86507143D01*
X80471429Y-86964286D01*
X79842857Y-85878571D02*
X81042857Y-85078571D01*
X79842857Y-85078571D02*
X81042857Y-85878571D01*
X81722857Y-87135714D02*
X81722857Y-86450000D01*
X82922857Y-86792857D02*
X81722857Y-86792857D01*
X81722857Y-86164285D02*
X82922857Y-85364285D01*
X81722857Y-85364285D02*
X82922857Y-86164285D01*
D13*
X79035715Y-83035714D02*
X78964286Y-83107143D01*
X78750000Y-83178571D01*
X78607143Y-83178571D01*
X78392858Y-83107143D01*
X78250000Y-82964286D01*
X78178572Y-82821429D01*
X78107143Y-82535714D01*
X78107143Y-82321429D01*
X78178572Y-82035714D01*
X78250000Y-81892857D01*
X78392858Y-81750000D01*
X78607143Y-81678571D01*
X78750000Y-81678571D01*
X78964286Y-81750000D01*
X79035715Y-81821429D01*
X79464286Y-81678571D02*
X80321429Y-81678571D01*
X79892858Y-83178571D02*
X79892858Y-81678571D01*
X81678572Y-83178571D02*
X81178572Y-82464286D01*
X80821429Y-83178571D02*
X80821429Y-81678571D01*
X81392857Y-81678571D01*
X81535715Y-81750000D01*
X81607143Y-81821429D01*
X81678572Y-81964286D01*
X81678572Y-82178571D01*
X81607143Y-82321429D01*
X81535715Y-82392857D01*
X81392857Y-82464286D01*
X80821429Y-82464286D01*
X83035715Y-83178571D02*
X82321429Y-83178571D01*
X82321429Y-81678571D01*
D11*
X65140000Y-86335714D02*
X65082857Y-86450000D01*
X65082857Y-86621429D01*
X65140000Y-86792857D01*
X65254286Y-86907143D01*
X65368571Y-86964286D01*
X65597143Y-87021429D01*
X65768571Y-87021429D01*
X65997143Y-86964286D01*
X66111429Y-86907143D01*
X66225714Y-86792857D01*
X66282857Y-86621429D01*
X66282857Y-86507143D01*
X66225714Y-86335714D01*
X66168571Y-86278571D01*
X65768571Y-86278571D01*
X65768571Y-86507143D01*
X66282857Y-85764286D02*
X65082857Y-85764286D01*
X66282857Y-85078571D01*
X65082857Y-85078571D01*
X66282857Y-84507143D02*
X65082857Y-84507143D01*
X65082857Y-84221428D01*
X65140000Y-84050000D01*
X65254286Y-83935714D01*
X65368571Y-83878571D01*
X65597143Y-83821428D01*
X65768571Y-83821428D01*
X65997143Y-83878571D01*
X66111429Y-83935714D01*
X66225714Y-84050000D01*
X66282857Y-84221428D01*
X66282857Y-84507143D01*
X68105714Y-87021429D02*
X68162857Y-86850000D01*
X68162857Y-86564286D01*
X68105714Y-86450000D01*
X68048571Y-86392857D01*
X67934286Y-86335714D01*
X67820000Y-86335714D01*
X67705714Y-86392857D01*
X67648571Y-86450000D01*
X67591429Y-86564286D01*
X67534286Y-86792857D01*
X67477143Y-86907143D01*
X67420000Y-86964286D01*
X67305714Y-87021429D01*
X67191429Y-87021429D01*
X67077143Y-86964286D01*
X67020000Y-86907143D01*
X66962857Y-86792857D01*
X66962857Y-86507143D01*
X67020000Y-86335714D01*
X68277143Y-85021429D02*
X68220000Y-85135714D01*
X68105714Y-85250000D01*
X67934286Y-85421429D01*
X67877143Y-85535714D01*
X67877143Y-85650000D01*
X68162857Y-85592857D02*
X68105714Y-85707143D01*
X67991429Y-85821429D01*
X67762857Y-85878572D01*
X67362857Y-85878572D01*
X67134286Y-85821429D01*
X67020000Y-85707143D01*
X66962857Y-85592857D01*
X66962857Y-85364286D01*
X67020000Y-85250000D01*
X67134286Y-85135714D01*
X67362857Y-85078572D01*
X67762857Y-85078572D01*
X67991429Y-85135714D01*
X68105714Y-85250000D01*
X68162857Y-85364286D01*
X68162857Y-85592857D01*
X68162857Y-83992857D02*
X68162857Y-84564286D01*
X66962857Y-84564286D01*
X70042857Y-86964286D02*
X68842857Y-86964286D01*
X68842857Y-86507143D01*
X68900000Y-86392857D01*
X68957143Y-86335714D01*
X69071429Y-86278571D01*
X69242857Y-86278571D01*
X69357143Y-86335714D01*
X69414286Y-86392857D01*
X69471429Y-86507143D01*
X69471429Y-86964286D01*
X68842857Y-85935714D02*
X68842857Y-85250000D01*
X70042857Y-85592857D02*
X68842857Y-85592857D01*
X68842857Y-85021428D02*
X68842857Y-84335714D01*
X70042857Y-84678571D02*
X68842857Y-84678571D01*
X71922857Y-86278571D02*
X71351429Y-86678571D01*
X71922857Y-86964286D02*
X70722857Y-86964286D01*
X70722857Y-86507143D01*
X70780000Y-86392857D01*
X70837143Y-86335714D01*
X70951429Y-86278571D01*
X71122857Y-86278571D01*
X71237143Y-86335714D01*
X71294286Y-86392857D01*
X71351429Y-86507143D01*
X71351429Y-86964286D01*
X70722857Y-85878571D02*
X71922857Y-85078571D01*
X70722857Y-85078571D02*
X71922857Y-85878571D01*
X72602857Y-87135714D02*
X72602857Y-86450000D01*
X73802857Y-86792857D02*
X72602857Y-86792857D01*
X72602857Y-86164285D02*
X73802857Y-85364285D01*
X72602857Y-85364285D02*
X73802857Y-86164285D01*
D13*
X67250001Y-83178571D02*
X67250001Y-81678571D01*
X67607144Y-81678571D01*
X67821429Y-81750000D01*
X67964287Y-81892857D01*
X68035715Y-82035714D01*
X68107144Y-82321429D01*
X68107144Y-82535714D01*
X68035715Y-82821429D01*
X67964287Y-82964286D01*
X67821429Y-83107143D01*
X67607144Y-83178571D01*
X67250001Y-83178571D01*
X68678572Y-82750000D02*
X69392858Y-82750000D01*
X68535715Y-83178571D02*
X69035715Y-81678571D01*
X69535715Y-83178571D01*
X69821429Y-81678571D02*
X70678572Y-81678571D01*
X70250001Y-83178571D02*
X70250001Y-81678571D01*
X71107143Y-82750000D02*
X71821429Y-82750000D01*
X70964286Y-83178571D02*
X71464286Y-81678571D01*
X71964286Y-83178571D01*
X56035714Y-83178571D02*
X56035714Y-81678571D01*
X56607142Y-81678571D01*
X56750000Y-81750000D01*
X56821428Y-81821429D01*
X56892857Y-81964286D01*
X56892857Y-82178571D01*
X56821428Y-82321429D01*
X56750000Y-82392857D01*
X56607142Y-82464286D01*
X56035714Y-82464286D01*
X57821428Y-81678571D02*
X58107142Y-81678571D01*
X58250000Y-81750000D01*
X58392857Y-81892857D01*
X58464285Y-82178571D01*
X58464285Y-82678571D01*
X58392857Y-82964286D01*
X58250000Y-83107143D01*
X58107142Y-83178571D01*
X57821428Y-83178571D01*
X57678571Y-83107143D01*
X57535714Y-82964286D01*
X57464285Y-82678571D01*
X57464285Y-82178571D01*
X57535714Y-81892857D01*
X57678571Y-81750000D01*
X57821428Y-81678571D01*
X58964286Y-81678571D02*
X59321429Y-83178571D01*
X59607143Y-82107143D01*
X59892857Y-83178571D01*
X60250000Y-81678571D01*
X60821429Y-82392857D02*
X61321429Y-82392857D01*
X61535715Y-83178571D02*
X60821429Y-83178571D01*
X60821429Y-81678571D01*
X61535715Y-81678571D01*
X63035715Y-83178571D02*
X62535715Y-82464286D01*
X62178572Y-83178571D02*
X62178572Y-81678571D01*
X62750000Y-81678571D01*
X62892858Y-81750000D01*
X62964286Y-81821429D01*
X63035715Y-81964286D01*
X63035715Y-82178571D01*
X62964286Y-82321429D01*
X62892858Y-82392857D01*
X62750000Y-82464286D01*
X62178572Y-82464286D01*
D14*
X59625000Y-52825000D02*
X59375000Y-52825000D01*
X59375000Y-52825000D02*
X59375000Y-52175000D01*
X59375000Y-52175000D02*
X59625000Y-52175000D01*
X59625000Y-52175000D02*
X59625000Y-52825000D01*
X59975000Y-79975000D02*
X58525000Y-79975000D01*
X58525000Y-79975000D02*
X58525000Y-78525000D01*
X58525000Y-78525000D02*
X59975000Y-78525000D01*
X59975000Y-78525000D02*
X59975000Y-79975000D01*
X60225000Y-69725000D02*
X58775000Y-69725000D01*
X58775000Y-69725000D02*
X58775000Y-68275000D01*
X58775000Y-68275000D02*
X60225000Y-68275000D01*
X60225000Y-68275000D02*
X60225000Y-69725000D01*
X67175000Y-74625000D02*
X67175000Y-74375000D01*
X67175000Y-74375000D02*
X67825000Y-74375000D01*
X67825000Y-74375000D02*
X67825000Y-74625000D01*
X67825000Y-74625000D02*
X67175000Y-74625000D01*
X69175000Y-74625000D02*
X69175000Y-74375000D01*
X69175000Y-74375000D02*
X69825000Y-74375000D01*
X69825000Y-74375000D02*
X69825000Y-74625000D01*
X69825000Y-74625000D02*
X69175000Y-74625000D01*
X83125000Y-67000000D02*
X82875000Y-67325000D01*
X83125000Y-67000000D02*
X82875000Y-66675000D01*
X82875000Y-67325000D02*
X82875000Y-66675000D01*
X83125000Y-73000000D02*
X82875000Y-73325000D01*
X83125000Y-73000000D02*
X82875000Y-72675000D01*
X82875000Y-73325000D02*
X82875000Y-72675000D01*
X64600200Y-62540000D02*
G75*
G03X64600200Y-62540000I-76200J0D01*
G01*
X64651000Y-62540000D02*
G75*
G03X64651000Y-62540000I-127000J0D01*
G01*
X57500000Y-54250000D02*
X57500000Y-65750000D01*
X64900000Y-54250000D02*
X57500000Y-54250000D01*
X64900000Y-65750000D02*
X64900000Y-54250000D01*
X57500000Y-65750000D02*
X64900000Y-65750000D01*
X64778000Y-62540000D02*
G75*
G03X64778000Y-62540000I-254000J0D01*
G01*
X62500000Y-99700000D02*
X56500000Y-99700000D01*
X56500000Y-99700000D02*
X56500000Y-88000000D01*
X56500000Y-88000000D02*
X57500000Y-88000000D01*
X57500000Y-88000000D02*
X57500000Y-92000000D01*
X62500000Y-99700000D02*
X62500000Y-88000000D01*
X62500000Y-88000000D02*
X61500000Y-88000000D01*
X61500000Y-88000000D02*
X61500000Y-92000000D01*
X75500000Y-99700000D02*
X63500000Y-99700000D01*
X63500000Y-99700000D02*
X63500000Y-88000000D01*
X63500000Y-88000000D02*
X64500000Y-88000000D01*
X64500000Y-88000000D02*
X64500000Y-92000000D01*
X75500000Y-99700000D02*
X75500000Y-88000000D01*
X75500000Y-88000000D02*
X74500000Y-88000000D01*
X74500000Y-88000000D02*
X74500000Y-92000000D01*
X84500000Y-99700000D02*
X76500000Y-99700000D01*
X76500000Y-99700000D02*
X76500000Y-88000000D01*
X76500000Y-88000000D02*
X77500000Y-88000000D01*
X77500000Y-88000000D02*
X77500000Y-92000000D01*
X84500000Y-99700000D02*
X84500000Y-88000000D01*
X84500000Y-88000000D02*
X83500000Y-88000000D01*
X83500000Y-88000000D02*
X83500000Y-92000000D01*
X57075000Y-75200000D02*
X57075000Y-73300000D01*
X57075000Y-73300000D02*
X61925000Y-73300000D01*
X61925000Y-73300000D02*
X61925000Y-75200000D01*
X61925000Y-75200000D02*
X57075000Y-75200000D01*
X73175000Y-79125000D02*
X73175000Y-78875000D01*
X73175000Y-78875000D02*
X73825000Y-78875000D01*
X73825000Y-78875000D02*
X73825000Y-79125000D01*
X73825000Y-79125000D02*
X73175000Y-79125000D01*
X71175000Y-79125000D02*
X71175000Y-78875000D01*
X71175000Y-78875000D02*
X71825000Y-78875000D01*
X71825000Y-78875000D02*
X71825000Y-79125000D01*
X71825000Y-79125000D02*
X71175000Y-79125000D01*
X69175000Y-79125000D02*
X69175000Y-78875000D01*
X69175000Y-78875000D02*
X69825000Y-78875000D01*
X69825000Y-78875000D02*
X69825000Y-79125000D01*
X69825000Y-79125000D02*
X69175000Y-79125000D01*
X67175000Y-79125000D02*
X67175000Y-78875000D01*
X67175000Y-78875000D02*
X67825000Y-78875000D01*
X67825000Y-78875000D02*
X67825000Y-79125000D01*
X67825000Y-79125000D02*
X67175000Y-79125000D01*
X82175000Y-79125000D02*
X82175000Y-78875000D01*
X82175000Y-78875000D02*
X82825000Y-78875000D01*
X82825000Y-78875000D02*
X82825000Y-79125000D01*
X82825000Y-79125000D02*
X82175000Y-79125000D01*
X80175000Y-79125000D02*
X80175000Y-78875000D01*
X80175000Y-78875000D02*
X80825000Y-78875000D01*
X80825000Y-78875000D02*
X80825000Y-79125000D01*
X80825000Y-79125000D02*
X80175000Y-79125000D01*
X83125000Y-69325000D02*
X82875000Y-69325000D01*
X82875000Y-69325000D02*
X82875000Y-68675000D01*
X82875000Y-68675000D02*
X83125000Y-68675000D01*
X83125000Y-68675000D02*
X83125000Y-69325000D01*
X83125000Y-71325000D02*
X82875000Y-71325000D01*
X82875000Y-71325000D02*
X82875000Y-70675000D01*
X82875000Y-70675000D02*
X83125000Y-70675000D01*
X83125000Y-70675000D02*
X83125000Y-71325000D01*
%LPC*%
D15*
X60300000Y-52500000D03*
X58700000Y-52500000D03*
D16*
X60750000Y-79250000D03*
X57750000Y-79250000D03*
X61000000Y-69000000D03*
X58000000Y-69000000D03*
D17*
X67500000Y-75300000D03*
X67500000Y-73700000D03*
X69500000Y-75300000D03*
X69500000Y-73700000D03*
D18*
X59950000Y-89750000D03*
X59050000Y-89750000D03*
X67500000Y-89450000D03*
X67500000Y-88550000D03*
X69500000Y-89450000D03*
X69500000Y-88550000D03*
X71500000Y-89450000D03*
X71500000Y-88550000D03*
X73500000Y-89450000D03*
X73500000Y-88550000D03*
X80500000Y-89450000D03*
X80500000Y-88550000D03*
X82500000Y-89450000D03*
X82500000Y-88550000D03*
D15*
X83800000Y-67000000D03*
X82200000Y-67000000D03*
X83800000Y-73000000D03*
X82200000Y-73000000D03*
D19*
X63000000Y-62540000D03*
X63000000Y-60000000D03*
X63000000Y-57460000D03*
D20*
X54000000Y-43500000D03*
D21*
X51470000Y-98730000D03*
X54010000Y-98730000D03*
X54010000Y-96190000D03*
X51470000Y-96190000D03*
X51470000Y-93650000D03*
X54010000Y-93650000D03*
X54010000Y-91110000D03*
X51470000Y-91110000D03*
X51470000Y-88570000D03*
X54010000Y-88570000D03*
X51470000Y-86030000D03*
X51470000Y-83490000D03*
X51470000Y-80950000D03*
X51470000Y-78410000D03*
X51470000Y-75870000D03*
X51470000Y-73330000D03*
X51470000Y-70790000D03*
X51470000Y-68250000D03*
X51470000Y-65710000D03*
X51470000Y-63170000D03*
X51470000Y-60630000D03*
X51470000Y-58090000D03*
X51470000Y-55550000D03*
X51470000Y-53010000D03*
X54010000Y-53010000D03*
X54010000Y-55550000D03*
X54010000Y-58090000D03*
X54010000Y-60630000D03*
X54010000Y-63170000D03*
X54010000Y-65710000D03*
X54010000Y-68250000D03*
X54010000Y-70790000D03*
X54010000Y-73330000D03*
X54010000Y-75870000D03*
X54010000Y-78410000D03*
X54010000Y-80950000D03*
X54010000Y-83490000D03*
X54010000Y-86030000D03*
X51470000Y-50470000D03*
X54010000Y-50470000D03*
X87030000Y-98730000D03*
X89570000Y-98730000D03*
X87030000Y-96190000D03*
X89570000Y-96190000D03*
X89570000Y-93650000D03*
X87030000Y-93650000D03*
X87030000Y-91110000D03*
X89570000Y-91110000D03*
X89570000Y-88570000D03*
X87030000Y-88570000D03*
X87030000Y-86030000D03*
X89570000Y-86030000D03*
X89570000Y-83490000D03*
X87030000Y-83490000D03*
X87030000Y-80950000D03*
X89570000Y-80950000D03*
X89570000Y-78410000D03*
X87030000Y-78410000D03*
X87030000Y-75870000D03*
X89570000Y-75870000D03*
X89570000Y-73330000D03*
X87030000Y-73330000D03*
X87030000Y-70790000D03*
X89570000Y-70790000D03*
X87030000Y-68250000D03*
X89570000Y-68250000D03*
X87030000Y-65710000D03*
X89570000Y-65710000D03*
X87030000Y-63170000D03*
X89570000Y-63170000D03*
X87030000Y-60630000D03*
X89570000Y-60630000D03*
X87030000Y-58090000D03*
X89570000Y-58090000D03*
X87030000Y-55550000D03*
X89570000Y-55550000D03*
X87030000Y-53010000D03*
X89570000Y-53010000D03*
X87030000Y-50470000D03*
X89570000Y-50470000D03*
D22*
X57000000Y-93600000D03*
X62000000Y-93600000D03*
D23*
X58500000Y-91500000D03*
X60500000Y-91500000D03*
D22*
X64000000Y-93600000D03*
X75000000Y-93600000D03*
D23*
X65500000Y-91500000D03*
X67500000Y-91500000D03*
X69500000Y-91500000D03*
X71500000Y-91500000D03*
X73500000Y-91500000D03*
D22*
X77000000Y-93600000D03*
X84000000Y-93600000D03*
D23*
X78500000Y-91500000D03*
X80500000Y-91500000D03*
X82500000Y-91500000D03*
D24*
X59500000Y-76100000D03*
X59500000Y-72400000D03*
D17*
X73500000Y-79800000D03*
X73500000Y-78200000D03*
X71500000Y-79800000D03*
X71500000Y-78200000D03*
X69500000Y-79800000D03*
X69500000Y-78200000D03*
X67500000Y-79800000D03*
X67500000Y-78200000D03*
X82500000Y-79800000D03*
X82500000Y-78200000D03*
X80500000Y-79800000D03*
X80500000Y-78200000D03*
D15*
X83800000Y-69000000D03*
X82200000Y-69000000D03*
X83800000Y-71000000D03*
X82200000Y-71000000D03*
M02*
